<svg id="eb2Gfj8DTkE1" xmlns="http://www.w3.org/2000/svg" xmlns:xlink="http://www.w3.org/1999/xlink" viewBox="0 0 500 500" shape-rendering="geometricPrecision" text-rendering="geometricPrecision">
<style><![CDATA[
#eb2Gfj8DTkE2_ts {animation: eb2Gfj8DTkE2_ts__ts 2000ms linear 1 normal forwards}@keyframes eb2Gfj8DTkE2_ts__ts { 0% {transform: translate(237.374104px,272.085449px) scale(0.1,0.1)} 50% {transform: translate(237.374104px,272.085449px) scale(1,1)} 100% {transform: translate(237.374104px,272.085449px) scale(0.9,0.9)}} #eb2Gfj8DTkE189 {animation: eb2Gfj8DTkE189_c_o 2000ms linear 1 normal forwards}@keyframes eb2Gfj8DTkE189_c_o { 0% {opacity: 0} 30% {opacity: 0} 70% {opacity: 1} 100% {opacity: 1}} #eb2Gfj8DTkE240 {animation: eb2Gfj8DTkE240_c_o 2000ms linear 1 normal forwards}@keyframes eb2Gfj8DTkE240_c_o { 0% {opacity: 0} 30% {opacity: 0} 70% {opacity: 1} 100% {opacity: 1}}
]]></style>
<g id="eb2Gfj8DTkE2_ts" transform="translate(237.374104,272.085449) scale(0.1,0.1)"><g transform="translate(-237.374104,-272.085449)" clip-path="url(#eb2Gfj8DTkE341)"><g><circle r="250" transform="translate(250 250)" fill="#ebe2cb"/><g opacity="0.9" mask="url(#eb2Gfj8DTkE187)"><g><g mask="url(#eb2Gfj8DTkE10)"><g><path d="M423.985,194.881c-1.459-3.067-3.554-5.986-6.581-7.554-3.797-1.959-8.365-1.5-12.554-.594-2.23.473-4.487,1.081-6.406,2.338-1.905,1.243-3.446,3.243-3.635,5.513-.108,1.419.297,2.825.743,4.176c1.379,4.176,3.109,8.23,5.149,12.122-5.716-3.284-12.257-6.676-18.622-4.919-4.824,1.338-8.608,5.811-9.094,10.77-.487,4.96,2.351,10.081,6.824,12.325c3.797,1.905,8.257,1.756,12.5,1.567-5.027,3.271-10.041,6.541-15.068,9.811-1.297.838-2.621,1.716-3.473,3.014-1.567,2.392-1.094,5.513-.554,8.324.987,5.122,2.216,10.69,6.298,13.973c4.851,3.892,12.216,3.041,17.527-.202c5.311-3.244,9.108-8.379,13.014-13.203.5-.622,1.04-1.257,1.77-1.568c2.257-.959,4.351,1.541,5.608,3.635c2.554,4.298,5.46,8.392,8.649,12.244c1.405,1.689,2.905,3.365,4.824,4.446c4.365,2.459,9.852,1.324,14.582-.365c2.378-.851,4.743-1.838,6.702-3.419c4.528-3.649,6.176-10.095,4.946-15.757-1.229-5.662-4.986-10.541-9.54-14.149-1.771-1.405-3.757-2.73-4.784-4.743c5.068-2.135,11.46-1.473,15.446-5.257c2.5-2.365,3.392-5.96,3.649-9.392.419-5.568-.946-11.865-5.622-14.946-4.473-2.933-10.487-1.946-15.406.175-2.202.946-11.297,7.257-13.432,6.014-1.23-.716-.797-5.365-1.041-6.689-.446-2.676-1.27-5.257-2.419-7.69Z" fill="#fff"/></g><mask id="eb2Gfj8DTkE10" mask-type="luminance" x="-150%" y="-150%" height="400%" width="400%"><path d="M462.391,185.354h-90.204v88.177h90.204v-88.177Z" fill="#fff"/></mask></g><g mask="url(#eb2Gfj8DTkE15)"><g><path d="M410.323,221.882c-1.987,1.784-3.243,4.351-3.406,7.014-.162,2.662.771,5.364,2.527,7.378.528.595,1.122,1.135,1.798,1.527c1.094.635,2.351.878,3.581,1.108c2.027.392,4.203.77,6.122,0c1.486-.594,2.621-1.797,3.662-3c1.338-1.54,2.649-3.216,3.04-5.203.568-2.838-.878-5.797-3.081-7.689-3.946-3.432-10.04-4.892-14.243-1.135Z" fill="#f7efe2"/></g><mask id="eb2Gfj8DTkE15" mask-type="luminance" x="-150%" y="-150%" height="400%" width="400%"><path d="M462.391,185.354h-90.204v88.177h90.204v-88.177Z" fill="#fff"/></mask></g><g mask="url(#eb2Gfj8DTkE41)"><g><g mask="url(#eb2Gfj8DTkE39)"><g><g mask="url(#eb2Gfj8DTkE37)"><g><g mask="url(#eb2Gfj8DTkE35)"><g><g mask="url(#eb2Gfj8DTkE28)"><g><path d="M255.712,13.7705c-.567-3.3514-1.797-6.72979-4.283-9.05415-3.122-2.91897-7.649-3.70276-11.92-3.98655-2.283-.148651-4.621-.175678-6.797.51352s-4.203,2.18922-4.987,4.32439c-.486,1.33786-.473,2.79735-.405,4.21629.189,4.392.757,8.7569,1.676,13.0678-4.622-4.7028-9.987-9.7434-16.582-9.784-5-.027-9.865,3.2568-11.675,7.9056-1.811,4.6487-.473,10.338,3.216,13.7164c3.135,2.8649,7.459,3.9325,11.595,4.9055-5.717,1.7838-11.447,3.5676-17.163,5.3649-1.473.4595-2.986.946-4.149,1.9595-2.148,1.8784-2.54,5.0136-2.783,7.8515-.446,5.2028-.771,10.8921,2.27,15.1489c3.608,5.0676,10.933,6.2433,16.919,4.5541c5.987-1.6757,11.041-5.5947,16.108-9.1758.649-.4595,1.338-.9325,2.136-1.0271c2.432-.3108,3.77,2.6622,4.405,5.0271c1.297,4.8244,2.973,9.5543,5,14.1354.892,2.0135,1.879,4.0271,3.433,5.5812c3.54,3.5541,9.121,3.946,14.135,3.5946c2.514-.1756,5.054-.4865,7.379-1.473c5.337-2.2838,8.689-8.0406,9.027-13.8245.351-5.7839-1.933-11.5002-5.352-16.203-1.324-1.8378-2.878-3.6487-3.311-5.8649c5.46-.6757,11.433,1.6892,16.298-.8784c3.041-1.6082,4.878-4.8244,6.054-8.0407c1.919-5.2433,2.311-11.6758-1.365-15.9056-3.513-4.0406-9.568-4.7298-14.878-4.0136-2.379.3243-12.838,3.919-14.555,2.1487-.986-1.0271.69-5.3785.825-6.7164.27-2.7027.189-5.419-.271-8.0677Z" fill="#fff"/></g><mask id="eb2Gfj8DTkE28" mask-type="luminance" x="-150%" y="-150%" height="400%" width="400%"><path d="M208.454,-9.4404l-23.922,84.87l86.821,24.4723l23.922-84.87-86.821-24.4723Z" fill="#fff"/></mask></g><g mask="url(#eb2Gfj8DTkE33)"><g><path d="M235.253,36.0546c-2.406,1.1757-4.298,3.3109-5.176,5.8245-.879,2.5135-.716,5.3784.432,7.7839.338.7162.771,1.3919,1.325,1.9594.878.9055,2.027,1.473,3.148,2.0406c1.852.919,3.838,1.8784,5.892,1.6487c1.595-.1757,3.014-1.0271,4.338-1.9054c1.703-1.1217,3.419-2.3785,4.338-4.1893c1.324-2.5811.73-5.8244-.878-8.2434-2.892-4.3244-8.352-7.392-13.419-4.919Z" fill="#f7efe2"/></g><mask id="eb2Gfj8DTkE33" mask-type="luminance" x="-150%" y="-150%" height="400%" width="400%"><path d="M208.454,-9.4404l-23.922,84.87l86.821,24.4723l23.922-84.87-86.821-24.4723Z" fill="#fff"/></mask></g></g><mask id="eb2Gfj8DTkE35" mask-type="luminance" x="-150%" y="-150%" height="400%" width="400%"><path d="M208.454,-9.4404l-23.922,84.87l86.821,24.4723l23.922-84.87-86.821-24.4723Z" fill="#fff"/></mask></g></g><mask id="eb2Gfj8DTkE37" mask-type="luminance" x="-150%" y="-150%" height="400%" width="400%"><path d="M500,0L-6.76471,0v506.765h506.76471L500,0Z" fill="#fff"/></mask></g></g><mask id="eb2Gfj8DTkE39" mask-type="luminance" x="-150%" y="-150%" height="400%" width="400%"><path d="M500,0L-6.76471,0v506.765h506.76471L500,0Z" fill="#fff"/></mask></g></g><mask id="eb2Gfj8DTkE41" mask-type="luminance" x="-150%" y="-150%" height="400%" width="400%"><path d="M500,0L-6.76471,0v516.9L500,516.9L500,0Z" fill="#fff"/></mask></g><g mask="url(#eb2Gfj8DTkE67)"><g><g mask="url(#eb2Gfj8DTkE65)"><g><g mask="url(#eb2Gfj8DTkE63)"><g><g mask="url(#eb2Gfj8DTkE61)"><g><g mask="url(#eb2Gfj8DTkE54)"><g><path d="M216.239,198.544c-3.365.5-6.771,1.648-9.149,4.081-2.987,3.054-3.878,7.567-4.243,11.824-.203,2.271-.284,4.609.351,6.811.635,2.189,2.095,4.244,4.203,5.081c1.324.527,2.784.541,4.203.5c4.392-.094,8.784-.554,13.094-1.378-4.811,4.514-9.973,9.757-10.162,16.352-.135,5,3.027,9.932,7.635,11.851c4.595,1.919,10.325.716,13.784-2.905c2.933-3.068,4.095-7.379,5.163-11.487c1.662,5.757,3.31,11.514,4.973,17.284.432,1.487.878,3.014,1.865,4.203c1.824,2.203,4.959,2.662,7.797,2.959c5.189.568,10.878,1.014,15.203-1.932c5.149-3.5,6.486-10.784,4.946-16.811-1.541-6.027-5.352-11.163-8.811-16.311-.446-.662-.892-1.365-.987-2.162-.256-2.433,2.757-3.717,5.122-4.284c4.852-1.189,9.622-2.757,14.244-4.69c2.027-.851,4.067-1.783,5.662-3.31c3.635-3.46,4.149-9.041,3.919-14.055-.122-2.513-.379-5.067-1.311-7.405-2.162-5.392-7.851-8.865-13.622-9.338-5.77-.487-11.541,1.676-16.324,4.973-1.865,1.284-3.703,2.797-5.933,3.176-.554-5.473,1.946-11.392-.5-16.311-1.541-3.082-4.716-4.987-7.905-6.23-5.203-2.041-11.622-2.581-15.933,1-4.108,3.419-4.946,9.459-4.352,14.784.271,2.392,3.622,12.932,1.811,14.595-1.04.973-5.365-.811-6.703-.973-2.675-.311-5.378-.284-8.04.108Z" fill="#fff"/></g><mask id="eb2Gfj8DTkE54" mask-type="luminance" x="-150%" y="-150%" height="400%" width="400%"><path d="M218.392,159.035l-26.43,86.245l84.307,25.836l26.43-86.245-84.307-25.836Z" fill="#fff"/></mask></g><g mask="url(#eb2Gfj8DTkE59)"><g><path d="M238.05,219.503c1.122,2.419,3.216,4.379,5.703,5.311c2.5.933,5.351.838,7.784-.256.716-.325,1.405-.73,1.986-1.271.919-.851,1.527-1.986,2.108-3.108.973-1.824,1.96-3.784,1.784-5.851-.135-1.595-.959-3.027-1.797-4.379-1.081-1.73-2.298-3.473-4.081-4.432-2.541-1.379-5.811-.852-8.257.689-4.406,2.797-7.581,8.189-5.23,13.297Z" fill="#f7efe2"/></g><mask id="eb2Gfj8DTkE59" mask-type="luminance" x="-150%" y="-150%" height="400%" width="400%"><path d="M218.392,159.035l-26.43,86.245l84.307,25.836l26.43-86.245-84.307-25.836Z" fill="#fff"/></mask></g></g><mask id="eb2Gfj8DTkE61" mask-type="luminance" x="-150%" y="-150%" height="400%" width="400%"><path d="M218.392,159.035l-26.43,86.245l84.307,25.836l26.43-86.245-84.307-25.836Z" fill="#fff"/></mask></g></g><mask id="eb2Gfj8DTkE63" mask-type="luminance" x="-150%" y="-150%" height="400%" width="400%"><path d="M500,0L-6.76471,0v506.765h506.76471L500,0Z" fill="#fff"/></mask></g></g><mask id="eb2Gfj8DTkE65" mask-type="luminance" x="-150%" y="-150%" height="400%" width="400%"><path d="M500,0L-6.76471,0v506.765h506.76471L500,0Z" fill="#fff"/></mask></g></g><mask id="eb2Gfj8DTkE67" mask-type="luminance" x="-150%" y="-150%" height="400%" width="400%"><path d="M500,0L-6.76471,0v516.9L500,516.9L500,0Z" fill="#fff"/></mask></g><g mask="url(#eb2Gfj8DTkE72)"><g><path d="M216.698,333.492c-1.459-3.068-3.554-5.987-6.581-7.554-3.797-1.96-8.365-1.5-12.554-.595-2.23.473-4.487,1.081-6.406,2.338-1.905,1.243-3.446,3.243-3.635,5.513-.108,1.419.297,2.825.743,4.176c1.379,4.176,3.109,8.23,5.149,12.122-5.716-3.284-12.257-6.676-18.622-4.919-4.824,1.338-8.608,5.811-9.095,10.77-.486,4.96,2.352,10.082,6.825,12.325c3.797,1.905,8.257,1.757,12.5,1.568-5.027,3.27-10.041,6.54-15.068,9.811-1.297.837-2.621,1.716-3.473,3.013-1.567,2.392-1.094,5.514-.554,8.325.987,5.121,2.216,10.689,6.298,13.973c4.851,3.892,12.216,3.04,17.527-.203s9.108-8.379,13.014-13.203c.5-.622,1.04-1.257,1.77-1.567c2.257-.96,4.351,1.54,5.608,3.635c2.554,4.297,5.46,8.392,8.649,12.243c1.405,1.689,2.905,3.365,4.824,4.446c4.365,2.46,9.852,1.324,14.582-.365c2.378-.851,4.743-1.838,6.702-3.419c4.528-3.648,6.176-10.094,4.946-15.757-1.229-5.662-4.986-10.54-9.54-14.149-1.771-1.405-3.757-2.729-4.784-4.743c5.068-2.135,11.46-1.473,15.446-5.257c2.5-2.365,3.392-5.959,3.649-9.392.419-5.567-.946-11.865-5.622-14.946-4.473-2.932-10.487-1.946-15.406.176-2.202.946-11.297,7.257-13.432,6.013-1.23-.716-.798-5.365-1.041-6.689-.446-2.676-1.257-5.257-2.419-7.689Z" fill="#fff"/></g><mask id="eb2Gfj8DTkE72" mask-type="luminance" x="-150%" y="-150%" height="400%" width="400%"><path d="M255.118,323.965h-90.204v88.177h90.204v-88.177Z" fill="#fff"/></mask></g><g mask="url(#eb2Gfj8DTkE77)"><g><path d="M203.049,360.492c-1.986,1.784-3.243,4.352-3.405,7.014s.77,5.365,2.527,7.378c.527.595,1.122,1.135,1.797,1.527c1.095.635,2.352.879,3.581,1.108c2.028.392,4.203.771,6.122,0c1.487-.594,2.622-1.797,3.662-3c1.338-1.54,2.649-3.216,3.041-5.202.568-2.838-.878-5.798-3.081-7.69-3.946-3.419-10.041-4.892-14.244-1.135Z" fill="#f7efe2"/></g><mask id="eb2Gfj8DTkE77" mask-type="luminance" x="-150%" y="-150%" height="400%" width="400%"><path d="M255.118,323.965h-90.204v88.177h90.204v-88.177Z" fill="#fff"/></mask></g><g mask="url(#eb2Gfj8DTkE82)"><g><path d="M431.08,377.533c-1.459-3.068-3.554-5.987-6.581-7.554-3.798-1.96-8.365-1.5-12.554-.595-2.23.473-4.487,1.081-6.406,2.338-1.905,1.243-3.446,3.243-3.635,5.514-.108,1.419.297,2.824.743,4.175c1.378,4.176,3.108,8.23,5.149,12.122-5.716-3.284-12.257-6.676-18.622-4.919-4.824,1.338-8.608,5.811-9.095,10.771-.486,4.959,2.352,10.081,6.825,12.324c3.797,1.906,8.257,1.757,12.5,1.568-5.027,3.27-10.041,6.54-15.068,9.811-1.297.838-2.622,1.716-3.473,3.013-1.568,2.392-1.095,5.514-.554,8.325.986,5.121,2.216,10.689,6.297,13.973c4.852,3.892,12.217,3.041,17.528-.203c5.311-3.243,9.108-8.378,13.013-13.203.5-.621,1.041-1.256,1.771-1.567c2.256-.96,4.351,1.54,5.608,3.635c2.554,4.297,5.459,8.392,8.649,12.243c1.405,1.69,2.905,3.365,4.824,4.446c4.365,2.46,9.852,1.325,14.581-.365c2.379-.851,4.744-1.837,6.703-3.418c4.527-3.649,6.176-10.095,4.946-15.757-1.23-5.663-4.986-10.541-9.541-14.149-1.77-1.406-3.756-2.73-4.783-4.744c5.067-2.135,11.459-1.473,15.446-5.257c2.5-2.364,3.392-5.959,3.649-9.392.418-5.567-.946-11.865-5.622-14.946-4.473-2.932-10.487-1.946-15.406.176-2.203.946-11.297,7.257-13.433,6.014-1.229-.717-.797-5.365-1.04-6.69-.446-2.675-1.27-5.257-2.419-7.689Z" fill="#fff"/></g><mask id="eb2Gfj8DTkE82" mask-type="luminance" x="-150%" y="-150%" height="400%" width="400%"><path d="M469.486,368.006h-90.204v88.177h90.204v-88.177Z" fill="#fff"/></mask></g><g mask="url(#eb2Gfj8DTkE87)"><g><path d="M417.418,404.533c-1.987,1.784-3.244,4.352-3.406,7.014s.77,5.365,2.527,7.378c.527.595,1.122,1.136,1.798,1.528c1.094.635,2.351.878,3.581,1.108c2.027.392,4.202.77,6.121,0c1.487-.595,2.622-1.798,3.663-3c1.337-1.541,2.648-3.217,3.04-5.203.568-2.838-.878-5.798-3.081-7.689-3.946-3.433-10.041-4.892-14.243-1.136Z" fill="#f7efe2"/></g><mask id="eb2Gfj8DTkE87" mask-type="luminance" x="-150%" y="-150%" height="400%" width="400%"><path d="M469.486,368.006h-90.204v88.177h90.204v-88.177Z" fill="#fff"/></mask></g><g mask="url(#eb2Gfj8DTkE113)"><g><g mask="url(#eb2Gfj8DTkE111)"><g><g mask="url(#eb2Gfj8DTkE109)"><g><g mask="url(#eb2Gfj8DTkE107)"><g><g mask="url(#eb2Gfj8DTkE100)"><g><path d="M221.955,461.683c-3.122-1.324-6.635-2.122-9.946-1.284-4.135,1.054-7.257,4.433-9.784,7.879-1.351,1.838-2.635,3.797-3.243,6-.595,2.202-.433,4.716.946,6.527.851,1.135,2.094,1.905,3.324,2.622c3.797,2.202,7.784,4.094,11.892,5.635-6.459,1.351-13.595,3.135-17.189,8.676-2.73,4.202-2.581,10.054.351,14.094c2.933,4.041,8.446,5.987,13.284,4.69c4.095-1.095,7.338-4.163,10.392-7.122-1.581,5.784-3.162,11.554-4.757,17.338-.405,1.487-.824,3.027-.594,4.554.419,2.824,2.851,4.852,5.108,6.595c4.135,3.176,8.757,6.527,13.987,6.27c6.216-.311,11.148-5.838,12.973-11.784c1.824-5.946,1.243-12.311.973-18.514-.041-.797-.054-1.635.284-2.351c1.054-2.216,4.283-1.73,6.608-1c4.77,1.514,9.649,2.662,14.595,3.419c2.175.338,4.405.595,6.554.122c4.905-1.068,8.243-5.554,10.662-9.96c1.216-2.216,2.324-4.527,2.73-7c.959-5.73-2.081-11.649-6.771-15.068-4.675-3.419-10.729-4.581-16.527-4.243-2.257.121-4.622.446-6.73-.379c2.379-4.959,7.595-8.716,8.055-14.189.297-3.432-1.433-6.703-3.501-9.446-3.378-4.446-8.581-8.257-14.121-7.446-5.298.77-9.136,5.5-11.406,10.351-1.014,2.176-3.635,12.919-6.054,13.406-1.392.284-4.162-3.487-5.216-4.311-2.082-1.635-4.406-3.027-6.879-4.081Z" fill="#fff"/></g><mask id="eb2Gfj8DTkE100" mask-type="luminance" x="-150%" y="-150%" height="400%" width="400%"><path d="M244.349,429.096l-67.464,59.878l58.533,65.948l67.464-59.878-58.533-65.948Z" fill="#fff"/></mask></g><g mask="url(#eb2Gfj8DTkE105)"><g><path d="M229.658,490.94c-.311,2.649.459,5.406,2.108,7.5c1.649,2.095,4.135,3.5,6.784,3.838.784.095,1.581.108,2.365-.054c1.23-.257,2.338-.905,3.419-1.554c1.784-1.054,3.649-2.216,4.567-4.068.717-1.432.757-3.081.744-4.675-.027-2.041-.162-4.163-1.176-5.919-1.459-2.5-4.514-3.757-7.406-3.703-5.216.094-10.743,3.04-11.405,8.635Z" fill="#f7efe2"/></g><mask id="eb2Gfj8DTkE105" mask-type="luminance" x="-150%" y="-150%" height="400%" width="400%"><path d="M244.349,429.096l-67.464,59.878l58.533,65.948l67.464-59.878-58.533-65.948Z" fill="#fff"/></mask></g></g><mask id="eb2Gfj8DTkE107" mask-type="luminance" x="-150%" y="-150%" height="400%" width="400%"><path d="M244.349,429.096l-67.464,59.878l58.533,65.948l67.464-59.878-58.533-65.948Z" fill="#fff"/></mask></g></g><mask id="eb2Gfj8DTkE109" mask-type="luminance" x="-150%" y="-150%" height="400%" width="400%"><path d="M500,0L-6.76471,0v506.765h506.76471L500,0Z" fill="#fff"/></mask></g></g><mask id="eb2Gfj8DTkE111" mask-type="luminance" x="-150%" y="-150%" height="400%" width="400%"><path d="M500,0L-6.76471,0v506.765h506.76471L500,0Z" fill="#fff"/></mask></g></g><mask id="eb2Gfj8DTkE113" mask-type="luminance" x="-150%" y="-150%" height="400%" width="400%"><path d="M500,0L-6.76471,0v516.9L500,516.9L500,0Z" fill="#fff"/></mask></g><g mask="url(#eb2Gfj8DTkE139)"><g><g mask="url(#eb2Gfj8DTkE137)"><g><g mask="url(#eb2Gfj8DTkE135)"><g><g mask="url(#eb2Gfj8DTkE133)"><g><g mask="url(#eb2Gfj8DTkE126)"><g><path d="M369.376,65.8794c-2.716-2.0406-5.932-3.6487-9.351-3.6217-4.27.027-8.108,2.5676-11.392,5.3109-1.757,1.4595-3.473,3.0541-4.581,5.0406-1.108,2-1.541,4.473-.649,6.5677.554,1.3108,1.581,2.3514,2.608,3.3379c3.162,3.0541,6.581,5.8379,10.203,8.3244-6.595-.2432-13.946-.2162-18.771,4.2974-3.648,3.419-4.919,9.1484-3.04,13.7704c1.878,4.622,6.77,7.838,11.77,7.743c4.244-.081,8.122-2.283,11.798-4.419-2.919,5.23-5.852,10.46-8.771,15.69-.756,1.351-1.527,2.743-1.675,4.284-.271,2.838,1.608,5.392,3.378,7.621c3.257,4.082,6.933,8.433,12.068,9.433c6.108,1.189,12.23-2.986,15.419-8.324s4.162-11.649,5.378-17.744c.163-.784.338-1.595.838-2.216c1.554-1.892,4.568-.662,6.649.621c4.257,2.609,8.73,4.892,13.352,6.811c2.027.838,4.135,1.622,6.338,1.69c5.013.148,9.338-3.419,12.729-7.109c1.703-1.851,3.338-3.838,4.338-6.148c2.311-5.338.771-11.811-2.959-16.257-3.73-4.4464-9.311-7.014-15.027-8.0816-2.23-.4189-4.595-.6622-6.433-1.973c3.5-4.2433,9.46-6.6352,11.23-11.838c1.108-3.2568.23-6.8515-1.135-10.0002-2.216-5.1217-6.352-10.0677-11.933-10.6083-5.324-.5135-10.189,3.1487-13.554,7.311-1.514,1.8649-6.622,11.6758-9.095,11.5677-1.419-.0675-3.203-4.3784-4.027-5.446-1.622-2.1217-3.554-4.0271-5.703-5.6352Z" fill="#fff"/></g><mask id="eb2Gfj8DTkE126" mask-type="luminance" x="-150%" y="-150%" height="400%" width="400%"><path d="M398.97,39.5818l-79.858,41.954l41.011,78.0632l79.858-41.954L398.97,39.5818Z" fill="#fff"/></mask></g><g mask="url(#eb2Gfj8DTkE131)"><g><path d="M369.836,96.1231c-.933,2.5-.852,5.3649.243,7.7979c1.095,2.432,3.176,4.391,5.662,5.351.744.284,1.514.486,2.311.513c1.257.055,2.487-.324,3.689-.689c1.987-.594,4.068-1.27,5.419-2.851c1.041-1.216,1.487-2.811,1.852-4.365.459-1.9866.851-4.0812.27-6.0272-.811-2.7703-3.473-4.7298-6.311-5.3784-5.081-1.1622-11.149.3784-13.135,5.6487Z" fill="#f7efe2"/></g><mask id="eb2Gfj8DTkE131" mask-type="luminance" x="-150%" y="-150%" height="400%" width="400%"><path d="M398.97,39.5818l-79.858,41.954l41.011,78.0632l79.858-41.954L398.97,39.5818Z" fill="#fff"/></mask></g></g><mask id="eb2Gfj8DTkE133" mask-type="luminance" x="-150%" y="-150%" height="400%" width="400%"><path d="M398.97,39.5818l-79.858,41.954l41.011,78.0632l79.858-41.954L398.97,39.5818Z" fill="#fff"/></mask></g></g><mask id="eb2Gfj8DTkE135" mask-type="luminance" x="-150%" y="-150%" height="400%" width="400%"><path d="M500,0L-6.76471,0v506.765h506.76471L500,0Z" fill="#fff"/></mask></g></g><mask id="eb2Gfj8DTkE137" mask-type="luminance" x="-150%" y="-150%" height="400%" width="400%"><path d="M500,0L-6.76471,0v506.765h506.76471L500,0Z" fill="#fff"/></mask></g></g><mask id="eb2Gfj8DTkE139" mask-type="luminance" x="-150%" y="-150%" height="400%" width="400%"><path d="M500,0L-6.76471,0v516.9L500,516.9L500,0Z" fill="#fff"/></mask></g><g mask="url(#eb2Gfj8DTkE165)"><g><g mask="url(#eb2Gfj8DTkE163)"><g><g mask="url(#eb2Gfj8DTkE161)"><g><g mask="url(#eb2Gfj8DTkE159)"><g><g mask="url(#eb2Gfj8DTkE152)"><g><path d="M69.9527,85.231c-2.6352-2.1486-5.7839-3.8784-9.1893-3.9865-4.2704-.1487-8.2029,2.2433-11.5813,4.8514-1.8108,1.3919-3.5946,2.9055-4.7838,4.865-1.1893,1.9459-1.7163,4.4189-.9055,6.5406.5136,1.3243,1.4865,2.419,2.473,3.4465c3.0406,3.175,6.338,6.094,9.8651,8.729-6.5812-.5-13.9327-.756-18.9192,3.554-3.7839,3.271-5.2704,8.947-3.5812,13.636s6.4461,8.095,11.4597,8.203c4.2433.081,8.2028-1.96,11.9596-3.946-3.1352,5.108-6.2569,10.23-9.392,15.338-.8109,1.311-1.6352,2.675-1.8379,4.202-.3919,2.825,1.3919,5.447,3.0811,7.744c3.0947,4.203,6.5947,8.703,11.6894,9.905c6.0541,1.433,12.338-2.5,15.73-7.716c3.4054-5.203,4.6217-11.487,6.0812-17.514.1891-.77.3918-1.581.9324-2.175c1.6216-1.825,4.5947-.473,6.6217.878c4.1622,2.784,8.5272,5.243,13.0673,7.338c2.001.919,4.068,1.784,6.257,1.946c5,.338,9.473-3.041,13.001-6.595c1.783-1.784,3.486-3.703,4.581-5.973c2.513-5.243,1.229-11.77-2.311-16.351-3.541-4.582-9.027-7.379-14.69-8.676-2.202-.5-4.567-.852-6.351-2.23c3.662-4.108,9.716-6.257,11.689-11.3921c1.23-3.2163.5-6.838-.743-10.0407-2.013-5.2028-5.946-10.311-11.5-11.0678-5.2975-.7297-10.311,2.7433-13.8381,6.7704-1.5811,1.8109-7.0812,11.4056-9.5407,11.2029-1.419-.1216-3.0271-4.5001-3.8109-5.5947-1.5676-2.2162-3.419-4.2028-5.5136-5.892Z" fill="#fff"/></g><mask id="eb2Gfj8DTkE152" mask-type="luminance" x="-150%" y="-150%" height="400%" width="400%"><path d="M100.545,60.1191L19.1002,98.8889L56.9987,178.504l81.4453-38.77-37.899-79.6149Z" fill="#fff"/></mask></g><g mask="url(#eb2Gfj8DTkE157)"><g><path d="M69.2365,115.475c-1.0406,2.459-1.0541,5.324-.0676,7.797c1,2.473,3,4.514,5.446,5.568.7298.311,1.5001.54,2.2838.608c1.2568.095,2.5001-.216,3.7163-.541c2.0001-.527,4.1217-1.108,5.5271-2.635c1.0811-1.175,1.5947-2.757,2.0136-4.284.5405-1.959,1-4.04.5135-6.013-.7027-2.811-3.2838-4.852-6.0947-5.622-5.0271-1.365-11.1623-.081-13.338,5.122Z" fill="#f7efe2"/></g><mask id="eb2Gfj8DTkE157" mask-type="luminance" x="-150%" y="-150%" height="400%" width="400%"><path d="M100.545,60.1191L19.1002,98.8889L56.9987,178.504l81.4453-38.77-37.899-79.6149Z" fill="#fff"/></mask></g></g><mask id="eb2Gfj8DTkE159" mask-type="luminance" x="-150%" y="-150%" height="400%" width="400%"><path d="M100.545,60.1191L19.1002,98.8889L56.9987,178.504l81.4453-38.77-37.899-79.6149Z" fill="#fff"/></mask></g></g><mask id="eb2Gfj8DTkE161" mask-type="luminance" x="-150%" y="-150%" height="400%" width="400%"><path d="M500,0L-6.76471,0v506.765h506.76471L500,0Z" fill="#fff"/></mask></g></g><mask id="eb2Gfj8DTkE163" mask-type="luminance" x="-150%" y="-150%" height="400%" width="400%"><path d="M500,0L-6.76471,0v506.765h506.76471L500,0Z" fill="#fff"/></mask></g></g><mask id="eb2Gfj8DTkE165" mask-type="luminance" x="-150%" y="-150%" height="400%" width="400%"><path d="M500,0L-6.76471,0v516.9L500,516.9L500,0Z" fill="#fff"/></mask></g><g mask="url(#eb2Gfj8DTkE170)"><g><path d="M26.0331,224.828c-1.4595-3.068-3.5541-5.987-6.5812-7.554-3.7973-1.96-8.365-1.5-12.55422-.595-2.22976.473-4.48656,1.081-6.405506,2.338-1.905434,1.243-3.446004,3.243-3.635194,5.514-.10811,1.419.2973,2.824.74325,4.175c1.3784,4.176,3.108163,8.23,5.14874,12.122-5.71631-3.284-12.25695-6.676-18.62187-4.919-4.8244,1.338-8.6083,5.811-9.0948,10.771-.4865,4.959,2.3514,10.081,6.8244,12.324c3.7974,1.906,8.25693,1.757,12.50024,1.568-5.02714,3.27-10.04074,6.54-15.06784,9.811-1.2973.837-2.6216,1.716-3.473,3.013-1.5676,2.392-1.0946,5.514-.5541,8.325.9865,5.121,2.2163,10.689,6.2974,13.973c4.8515,3.892,12.21645,3.04,17.527344-.203s9.108256-8.378,13.013756-13.203c.5-.621,1.0405-1.257,1.7703-1.567c2.2568-.96,4.3514,1.54,5.6082,3.635c2.5541,4.297,5.4595,8.392,8.6487,12.243c1.4055,1.689,2.9055,3.365,4.8244,4.446c4.365,2.46,9.8515,1.325,14.5814-.365c2.3784-.851,4.7433-1.837,6.7028-3.419c4.5271-3.648,6.1757-10.094,4.946-15.757-1.2298-5.662-4.9866-10.54-9.5407-14.148-1.7703-1.406-3.7568-2.73-4.7839-4.744c5.0677-2.135,11.4597-1.473,15.4462-5.257c2.5001-2.365,3.392-5.959,3.6487-9.392.419-5.567-.9459-11.865-5.6217-14.946-4.473-2.932-10.4866-1.946-15.4056.176-2.2028.946-11.2975,7.257-13.4327,6.013-1.2297-.716-.7973-5.364-1.0405-6.689-.446-2.676-1.2568-5.27-2.419-7.689Z" fill="#fff"/></g><mask id="eb2Gfj8DTkE170" mask-type="luminance" x="-150%" y="-150%" height="400%" width="400%"><path d="M64.4391,215.301h-71.20381v88.177h71.20381v-88.177Z" fill="#fff"/></mask></g><g mask="url(#eb2Gfj8DTkE175)"><g><path d="M12.3843,251.815c-1.9866,1.784-3.24334,4.351-3.40551,7.013-.16216,2.663.77029,5.365,2.52711,7.379.527.594,1.1216,1.135,1.7973,1.527c1.0946.635,2.3514.878,3.5811,1.108c2.0271.392,4.2028.77,6.1217,0c1.4865-.595,2.6217-1.797,3.6623-3c1.3378-1.541,2.6486-3.216,3.0405-5.203.5676-2.838-.8783-5.797-3.0811-7.689-3.9595-3.419-10.0407-4.879-14.2434-1.135Z" fill="#f7efe2"/></g><mask id="eb2Gfj8DTkE175" mask-type="luminance" x="-150%" y="-150%" height="400%" width="400%"><path d="M64.4391,215.301h-71.20381v88.177h71.20381v-88.177Z" fill="#fff"/></mask></g><g mask="url(#eb2Gfj8DTkE180)"><g><path d="M62.0067,394.885c-1.4595-3.068-3.5542-5.987-6.5812-7.555-3.7974-1.959-8.365-1.5-12.5543-.594-2.2297.473-4.4865,1.081-6.4055,2.338-1.9054,1.243-3.446,3.243-3.6352,5.513-.1081,1.419.2973,2.825.7433,4.176c1.3784,4.176,3.1081,8.23,5.1487,12.122-5.7163-3.284-12.2569-6.676-18.6219-4.919-4.8244,1.338-8.6083,5.811-9.0947,10.77-.4865,4.96,2.3513,10.081,6.8244,12.325c3.7973,1.905,8.2569,1.757,12.5002,1.567-5.0271,3.271-10.0407,6.541-15.0678,9.811-1.2973.838-2.6217,1.717-3.4731,3.014-1.5675,2.392-1.0946,5.513-.554,8.324.9865,5.122,2.2162,10.69,6.2974,13.974c4.8514,3.891,12.2164,3.04,17.5273-.203s9.1082-8.379,13.0137-13.203c.5-.622,1.0406-1.257,1.7703-1.568c2.2568-.959,4.3514,1.541,5.6082,3.636c2.5541,4.297,5.4595,8.392,8.6488,12.243c1.4054,1.689,2.9054,3.365,4.8244,4.446c4.3649,2.459,9.8515,1.324,14.5813-.365c2.3784-.851,4.7433-1.838,6.7028-3.419c4.5271-3.649,6.1758-10.095,4.946-15.757-1.2297-5.662-4.9865-10.541-9.5407-14.149-1.7703-1.405-3.7568-2.73-4.7838-4.743c5.0676-2.135,11.4596-1.473,15.4462-5.257c2.5-2.365,3.3919-5.959,3.6487-9.392.4188-5.568-.946-11.865-5.6217-14.946-4.4731-2.933-10.4867-1.946-15.4057.176-2.2027.946-11.2975,7.256-13.4326,6.013-1.2298-.716-.7973-5.365-1.0406-6.689-.4459-2.676-1.2703-5.257-2.4189-7.689Z" fill="#fff"/></g><mask id="eb2Gfj8DTkE180" mask-type="luminance" x="-150%" y="-150%" height="400%" width="400%"><path d="M100.413,385.371h-90.2045v88.177h90.2045v-88.177Z" fill="#fff"/></mask></g><g mask="url(#eb2Gfj8DTkE185)"><g><path d="M48.3443,421.885c-1.9866,1.784-3.2433,4.351-3.4055,7.014-.1622,2.662.7703,5.365,2.5271,7.378.527.595,1.1216,1.135,1.7973,1.527c1.0946.635,2.3514.879,3.5811,1.108c2.0271.392,4.2028.771,6.1217,0c1.4866-.594,2.6217-1.797,3.6623-3c1.3378-1.54,2.6487-3.216,3.0406-5.203.5675-2.837-.8784-5.797-3.0812-7.689-3.946-3.419-10.0407-4.892-14.2434-1.135Z" fill="#f7efe2"/></g><mask id="eb2Gfj8DTkE185" mask-type="luminance" x="-150%" y="-150%" height="400%" width="400%"><path d="M100.413,385.371h-90.2045v88.177h90.2045v-88.177Z" fill="#fff"/></mask></g></g><mask id="eb2Gfj8DTkE187" mask-type="alpha" x="-150%" y="-150%" height="400%" width="400%"><circle r="250" transform="translate(250 250)" fill="#ebe2cb"/></mask></g><g id="eb2Gfj8DTkE189" transform="translate(.000001 0)" opacity="0"><g mask="url(#eb2Gfj8DTkE198)"><g><path d="M76.6584,180.12c0-8.236,1.9103-14.349,5.7311-18.34c3.8207-3.99,9.6792-5.986,17.5754-5.986c3.2261,0,6.5381.298,9.9341.892c3.481.594,6.665,1.656,9.552,3.184c2.886,1.443,5.221,3.481,7.004,6.113c1.868,2.632,2.802,6.028,2.802,10.189c0,4.585-1.019,8.915-3.056,12.99-1.953,3.991-4.458,7.769-7.515,11.335-2.971,3.481-6.283,6.75-9.933,9.807-3.566,2.971-6.92,5.816-10.0617,8.533-.1698.339-.3396,1.061-.5095,2.165-.0849,1.019-.1273,1.698-.1273,2.037c0,2.802.8066,5.604,2.4195,8.406c1.698,2.887,3.524,5.774,5.477,8.66c1.952,2.972,3.736,6.029,5.349,9.17c1.613,3.142,2.42,6.41,2.42,9.807c0,2.037-.425,3.226-1.274,3.566-.849.424-2.632.637-5.349.637-1.698-.68-3.396-2.293-5.094-4.84-1.614-2.462-3.2693-5.519-4.9674-9.17-1.6132-3.651-3.2264-7.769-4.8396-12.354-1.5283-4.5-3.0141-9.084-4.4575-13.754-1.3585-4.755-2.6745-9.425-3.9481-14.01-1.1887-4.669-2.25-8.957-3.1839-12.863-.934-3.905-1.7831-7.259-2.5472-10.061-.6792-2.887-1.1462-4.925-1.4009-6.113Zm10.8254,1.146c0,1.274.0849,3.142.2547,5.604.1698,2.377.5094,4.754,1.0189,7.132.5943,2.377,1.4434,4.457,2.5471,6.24c1.1038,1.698,2.6321,2.548,4.5849,2.548c2.6321,0,5.2646-.892,7.8966-2.675c2.717-1.783,5.094-4.033,7.132-6.75c2.122-2.717,3.82-5.604,5.094-8.66c1.358-3.142,2.038-5.986,2.038-8.533c0-2.123-.51-3.779-1.529-4.967-1.018-1.274-2.335-2.25-3.948-2.929-1.528-.765-3.184-1.232-4.967-1.401-1.783-.255-3.481-.382-5.094-.382-4.8396,0-8.5754,1.316-11.2075,3.948-2.5471,2.547-3.8207,6.155-3.8207,10.825Z" fill="#ff3873"/><path d="M142.114,179.356c0-.51,0-1.316,0-2.42.085-1.189.127-2.42.127-3.694.085-1.273.128-2.504.128-3.693.085-1.189.127-2.038.127-2.547.934-1.359,2.123-2.462,3.566-3.311c1.528-.849,3.057-1.529,4.585-2.038.255,4.585.976,9.467,2.165,14.646s2.462,10.401,3.821,15.665c1.358,5.179,2.547,10.316,3.566,15.41c1.104,5.095,1.655,9.849,1.655,14.264c0,3.821-1.952,5.732-5.858,5.732-2.377,0-4.373-.977-5.986-2.93-1.613-1.952-2.929-4.415-3.948-7.386-.934-3.057-1.698-6.411-2.292-10.062-.595-3.736-1.019-7.386-1.274-10.952-.17-3.566-.297-6.835-.382-9.807c0-2.972,0-5.264,0-6.877Zm1.783-47.76c1.613.68,2.972,1.783,4.075,3.312c1.104,1.528,1.571,2.929,1.401,4.203-.085,1.188-1.018,2.037-2.801,2.547-1.783.424-4.755-.085-8.916-1.529c0-2.292.425-4.287,1.274-5.985.934-1.698,2.59-2.548,4.967-2.548Z" fill="#ff3873"/><path d="M166.818,191.709c0-4.585.552-9.169,1.656-13.754c1.103-4.585,2.844-8.703,5.221-12.354c2.462-3.651,5.604-6.623,9.425-8.915c3.905-2.292,8.618-3.439,14.136-3.439c3.142,0,5.901.595,8.279,1.783c2.377,1.104,4.372,2.59,5.986,4.458c1.613,1.868,2.801,4.075,3.566,6.622.849,2.463,1.273,5.052,1.273,7.769c0,4.33-1.019,8.533-3.056,12.609-1.953,4.075-4.628,7.684-8.024,10.825-3.311,3.057-7.132,5.392-11.462,7.005-4.33,1.528-8.745,1.868-13.245,1.019.084,2.462.891,4.457,2.419,5.985c1.614,1.444,3.524,2.548,5.731,3.312c2.208.764,4.5,1.273,6.878,1.528c2.377.17,4.5.255,6.368.255c1.953,0,3.778-.17,5.476-.51c1.698-.339,3.396-.721,5.094-1.146c1.698-.424,3.397-.806,5.095-1.146c1.783-.34,3.651-.509,5.603-.509.765,0,1.529.042,2.293.127s1.486.297,2.165.637c.679.254,1.231.721,1.656,1.401.424.594.636,1.358.636,2.292c0,1.613-.594,2.972-1.783,4.075-1.188,1.019-2.717,1.911-4.584,2.675-1.783.764-3.779,1.358-5.986,1.783-2.208.34-4.373.637-6.496.892-2.037.169-3.948.254-5.731.254-1.698.085-2.971.128-3.82.128-5.434,0-10.316-.849-14.647-2.548-4.33-1.783-7.981-4.202-10.952-7.259-2.972-3.141-5.264-6.877-6.878-11.207-1.528-4.416-2.292-9.298-2.292-14.647Zm13.5-8.278c0,2.972.382,5.137,1.146,6.495.849,1.359,2.844,2.038,5.986,2.038c2.207,0,4.373-.382,6.495-1.146c2.123-.849,4.033-1.995,5.731-3.439c1.783-1.443,3.184-3.141,4.203-5.094s1.528-4.076,1.528-6.368c0-1.274-.127-2.59-.382-3.948-.17-1.359-.594-2.59-1.273-3.693-.68-1.189-1.571-2.123-2.675-2.802-1.019-.764-2.377-1.147-4.075-1.147-2.547,0-4.882.595-7.005,1.783-2.038,1.104-3.778,2.59-5.222,4.458-1.443,1.783-2.547,3.821-3.311,6.113-.764,2.208-1.146,4.458-1.146,6.75Z" fill="#ff3873"/><path d="M237.876,173.625c0-.765.043-1.529.128-2.293.085-.849.255-1.571.509-2.165.255-.679.637-1.231,1.146-1.656.595-.424,1.401-.636,2.42-.636.849,0,1.783.679,2.802,2.037c1.104,1.274,2.208,2.93,3.311,4.967c1.104,1.953,2.166,4.118,3.184,6.496c1.104,2.377,2.038,4.584,2.802,6.622.849,1.953,1.529,3.651,2.038,5.094.509,1.444.807,2.208.891,2.293c1.104-2.972,2.335-6.198,3.694-9.679c1.358-3.481,3.014-6.708,4.967-9.68c2.038-3.056,4.415-5.603,7.132-7.641c2.802-2.038,6.198-3.057,10.188-3.057c2.038,0,3.949.34,5.732,1.019c1.868.595,3.481,1.529,4.839,2.802c1.444,1.189,2.59,2.632,3.439,4.33s1.273,3.651,1.273,5.859c0,1.868-.764,3.184-2.292,3.948-1.443.764-3.099,1.146-4.967,1.146h-1.274l-5.476-5.476c-.17,0-.297-.043-.382-.128-.17,0-.34,0-.509,0-.085-.085-.213-.127-.383-.127-2.971,0-5.306.849-7.004,2.547-1.613,1.613-2.845,3.651-3.694,6.113-.849,2.378-1.401,4.925-1.655,7.642-.17,2.632-.255,5.052-.255,7.259c0,1.698.17,3.439.509,5.222.34,1.698.722,3.396,1.147,5.094.424,1.613.806,3.312,1.146,5.095.34,1.698.509,3.481.509,5.349c0,3.566-1.91,5.349-5.731,5.349-2.122,0-4.33-1.104-6.622-3.312-2.293-2.292-4.585-5.179-6.878-8.66-2.207-3.481-4.33-7.302-6.368-11.462-2.037-4.246-3.82-8.363-5.349-12.354-1.528-3.991-2.759-7.599-3.693-10.825-.849-3.227-1.274-5.604-1.274-7.132Z" fill="#ff3873"/><path d="M300.148,212.087c0-4.925,1.231-9.297,3.694-13.118c2.462-3.821,5.518-7.132,9.169-9.934c3.651-2.887,7.599-5.307,11.845-7.26c4.245-2.037,8.193-3.693,11.844-4.966c3.651-1.359,6.707-2.42,9.17-3.184c2.462-.849,3.693-1.529,3.693-2.038c0-2.972-.17-5.859-.509-8.66-.255-2.887-.552-5.774-.892-8.661s-.679-5.731-1.019-8.533c-.254-2.887-.382-5.731-.382-8.533v-8.278c3.481-1.274,5.944-1.146,7.387.382c1.528,1.528,1.783,4.16.764,7.896.34,1.868.807,4.797,1.401,8.788.594,3.99,1.231,8.49,1.91,13.5.765,5.009,1.529,10.273,2.293,15.792.849,5.519,1.613,10.826,2.292,15.92.764,5.009,1.401,9.509,1.911,13.5.509,3.906.891,6.835,1.146,8.788.085.424.17,1.273.255,2.547.084,1.188.127,2.504.127,3.948.085,1.358.127,2.632.127,3.821.085,1.188.128,2.037.128,2.547-3.227,0-5.434-.128-6.623-.382-1.104-.255-1.825-.764-2.165-1.529-.255-.764-.382-1.868-.382-3.311s-.425-3.439-1.274-5.986c-3.141,2.462-6.113,4.5-8.915,6.113-2.802,1.614-5.604,2.93-8.405,3.949-2.802.933-5.647,1.57-8.533,1.91-2.802.424-5.816.637-9.043.637-2.717,0-5.349-.213-7.896-.637-2.462-.51-4.67-1.359-6.623-2.547-1.952-1.189-3.523-2.802-4.712-4.84-1.188-2.038-1.783-4.585-1.783-7.641Zm11.08-2.675c0,1.359.297,2.462.892,3.311.594.849,1.358,1.571,2.292,2.166.934.594,1.911,1.018,2.929,1.273c1.104.17,2.166.255,3.184.255c2.972,0,6.156-.552,9.552-1.656c3.481-1.189,6.665-2.802,9.552-4.839c2.972-2.123,5.392-4.628,7.26-7.515c1.952-2.886,2.929-6.028,2.929-9.424c0-2.632-.467-4.458-1.401-5.476-.934-1.019-2.717-1.529-5.349-1.529-2.717,0-5.901.637-9.552,1.911-3.566,1.273-7.047,2.971-10.443,5.094-3.312,2.123-6.114,4.627-8.406,7.514-2.292,2.802-3.439,5.774-3.439,8.915Z" fill="#ff3873"/><path d="M374.009,201.261c0-5.264,1.231-10.146,3.694-14.646c2.462-4.585,5.688-8.49,9.679-11.717c4.075-3.311,8.618-5.901,13.627-7.769c5.094-1.868,10.231-2.802,15.41-2.802c2.887,0,5.434.934,7.642,2.802c2.292,1.868,4.203,4.161,5.731,6.878c1.528,2.632,2.674,5.434,3.439,8.405.849,2.972,1.273,5.562,1.273,7.769c0,4.755-1.146,9.382-3.439,13.882-2.292,4.415-5.264,8.363-8.915,11.844-3.651,3.397-7.768,6.156-12.353,8.279-4.585,2.122-9.17,3.184-13.755,3.184-4.075,0-7.514-.68-10.316-2.038-2.802-1.444-5.052-3.311-6.75-5.604-1.698-2.377-2.972-5.137-3.821-8.278-.764-3.227-1.146-6.623-1.146-10.189Zm10.826,1.274c0,2.207.169,4.16.509,5.858.425,1.613,1.104,3.014,2.038,4.203c1.019,1.189,2.335,2.123,3.948,2.802c1.613.594,3.608.891,5.986.891c3.141,0,6.283-.849,9.424-2.547c3.142-1.783,5.943-3.99,8.406-6.622c2.547-2.717,4.585-5.689,6.113-8.915c1.528-3.227,2.292-6.368,2.292-9.425c0-1.358-.127-2.844-.382-4.457-.254-1.614-.679-3.099-1.273-4.458-.595-1.358-1.444-2.505-2.547-3.439-1.104-.934-2.505-1.401-4.203-1.401-1.529,0-3.354.51-5.477,1.529-2.037,1.019-4.202,2.335-6.495,3.948-2.207,1.613-4.415,3.439-6.623,5.476-2.122,2.038-4.075,4.076-5.858,6.113-1.783,2.038-3.226,3.991-4.33,5.859-1.019,1.868-1.528,3.396-1.528,4.585Z" fill="#ff3873"/></g><mask id="eb2Gfj8DTkE198" mask-type="luminance" x="-150%" y="-150%" height="400%" width="400%"><path d="M520,-87h-540v540h540v-540Z" fill="#fff"/></mask></g><g mask="url(#eb2Gfj8DTkE208)"><g><path d="M73.8986,178.714c0-8.236,1.9104-14.349,5.7311-18.34c3.8207-3.99,9.6792-5.986,17.5754-5.986c3.2259,0,6.5379.298,9.9339.892c3.481.594,6.665,1.655,9.552,3.184c2.887,1.443,5.222,3.481,7.005,6.113c1.867,2.632,2.801,6.028,2.801,10.189c0,4.584-1.018,8.915-3.056,12.99-1.953,3.991-4.458,7.769-7.514,11.335-2.972,3.481-6.283,6.75-9.934,9.807-3.566,2.971-6.92,5.816-10.0615,8.532-.1698.34-.3396,1.062-.5094,2.166-.0849,1.018-.1274,1.698-.1274,2.037c0,2.802.8066,5.604,2.4198,8.406c1.6981,2.887,3.5235,5.773,5.4765,8.66c1.953,2.972,3.736,6.029,5.349,9.17c1.613,3.142,2.42,6.41,2.42,9.807c0,2.037-.425,3.226-1.274,3.566-.849.424-2.632.636-5.349.636-1.698-.679-3.396-2.292-5.0942-4.839-1.6132-2.462-3.2688-5.519-4.9669-9.17-1.6132-3.651-3.2264-7.769-4.8396-12.354-1.5283-4.5-3.0142-9.085-4.4576-13.754-1.3585-4.755-2.6745-9.425-3.9481-14.01-1.1886-4.67-2.25-8.957-3.1839-12.863s-1.783-7.259-2.5472-10.061c-.6792-2.887-1.1462-4.925-1.4009-6.113ZM84.724,179.86c0,1.273.0849,3.141.2547,5.604.1698,2.377.5095,4.754,1.0189,7.132.5943,2.377,1.4434,4.457,2.5472,6.24c1.1037,1.698,2.632,2.547,4.5848,2.547c2.6321,0,5.2642-.891,7.8964-2.674c2.717-1.783,5.094-4.033,7.132-6.75c2.122-2.717,3.821-5.604,5.094-8.66c1.359-3.142,2.038-5.986,2.038-8.533c0-2.123-.51-3.779-1.528-4.967-1.019-1.274-2.335-2.25-3.948-2.93-1.529-.764-3.184-1.231-4.967-1.401-1.783-.254-3.482-.382-5.0948-.382-4.8396,0-8.5754,1.316-11.2074,3.948-2.5472,2.548-3.8208,6.156-3.8208,10.826Z" fill="#ff3873"/><path d="M139.354,177.95c0-.51,0-1.317,0-2.42.085-1.189.128-2.42.128-3.694.084-1.273.127-2.504.127-3.693.085-1.189.127-2.038.127-2.547.934-1.359,2.123-2.462,3.566-3.312c1.529-.849,3.057-1.528,4.585-2.037.255,4.585.977,9.467,2.165,14.646c1.189,5.179,2.463,10.401,3.821,15.665c1.359,5.179,2.547,10.316,3.566,15.41c1.104,5.095,1.656,9.849,1.656,14.264c0,3.821-1.953,5.731-5.859,5.731-2.377,0-4.372-.976-5.986-2.929-1.613-1.953-2.929-4.415-3.948-7.387-.934-3.056-1.698-6.41-2.292-10.061-.594-3.736-1.019-7.387-1.274-10.953-.17-3.566-.297-6.834-.382-9.806c0-2.972,0-5.264,0-6.877Zm1.783-47.76c1.613.68,2.972,1.783,4.076,3.312c1.103,1.528,1.57,2.929,1.401,4.202-.085,1.189-1.019,2.038-2.802,2.548-1.783.424-4.755-.085-8.915-1.529c0-2.292.424-4.287,1.273-5.986.934-1.698,2.59-2.547,4.967-2.547Z" fill="#ff3873"/><path d="M164.058,190.303c0-4.585.552-9.17,1.656-13.754c1.104-4.585,2.844-8.703,5.221-12.354c2.463-3.651,5.604-6.623,9.425-8.915c3.906-2.293,8.618-3.439,14.137-3.439c3.141,0,5.901.594,8.278,1.783c2.377,1.104,4.373,2.59,5.986,4.458s2.802,4.075,3.566,6.622c.849,2.463,1.273,5.052,1.273,7.769c0,4.33-1.018,8.533-3.056,12.609-1.953,4.075-4.628,7.683-8.024,10.825-3.311,3.057-7.132,5.391-11.462,7.005-4.33,1.528-8.745,1.868-13.245,1.019.085,2.462.891,4.457,2.42,5.985c1.613,1.444,3.523,2.547,5.731,3.312c2.207.764,4.5,1.273,6.877,1.528c2.377.17,4.5.255,6.368.255c1.953,0,3.778-.17,5.476-.51c1.698-.339,3.397-.721,5.095-1.146s3.396-.807,5.094-1.146c1.783-.34,3.651-.51,5.604-.51.764,0,1.528.043,2.292.128s1.486.297,2.165.636c.679.255,1.231.722,1.656,1.401.424.595.637,1.359.637,2.293c0,1.613-.595,2.972-1.783,4.075-1.189,1.019-2.717,1.911-4.585,2.675-1.783.764-3.779,1.358-5.986,1.783-2.208.339-4.373.637-6.495.891-2.038.17-3.948.255-5.731.255-1.699.085-2.972.127-3.821.127-5.434,0-10.316-.849-14.646-2.547-4.33-1.783-7.981-4.203-10.953-7.259-2.972-3.142-5.264-6.877-6.877-11.208-1.529-4.415-2.293-9.297-2.293-14.646Zm13.5-8.278c0,2.972.382,5.137,1.146,6.495.849,1.359,2.845,2.038,5.986,2.038c2.208,0,4.373-.382,6.495-1.146c2.123-.849,4.033-1.996,5.731-3.439c1.784-1.443,3.184-3.141,4.203-5.094s1.529-4.076,1.529-6.368c0-1.274-.128-2.59-.382-3.948-.17-1.359-.595-2.59-1.274-3.694-.679-1.188-1.571-2.122-2.675-2.801-1.018-.765-2.377-1.147-4.075-1.147-2.547,0-4.882.595-7.005,1.783-2.037,1.104-3.778,2.59-5.221,4.458-1.444,1.783-2.548,3.821-3.312,6.113-.764,2.208-1.146,4.458-1.146,6.75Z" fill="#ff3873"/><path d="M235.117,172.218c0-.764.042-1.528.127-2.292.085-.849.255-1.571.509-2.165.255-.679.637-1.231,1.147-1.656.594-.424,1.401-.637,2.419-.637.85,0,1.783.68,2.802,2.038c1.104,1.274,2.208,2.929,3.312,4.967c1.103,1.953,2.165,4.118,3.184,6.495c1.103,2.378,2.037,4.585,2.801,6.623.85,1.953,1.529,3.651,2.038,5.094.51,1.444.807,2.208.892,2.293c1.103-2.972,2.335-6.198,3.693-9.679c1.359-3.482,3.014-6.708,4.967-9.68c2.038-3.056,4.415-5.603,7.132-7.641c2.802-2.038,6.198-3.057,10.189-3.057c2.037,0,3.948.34,5.731,1.019c1.868.594,3.481,1.528,4.839,2.802c1.444,1.189,2.59,2.632,3.439,4.33s1.274,3.651,1.274,5.859c0,1.868-.764,3.184-2.293,3.948-1.443.764-3.099,1.146-4.967,1.146h-1.273l-5.477-5.476c-.17,0-.297-.043-.382-.128-.17,0-.339,0-.509,0-.085-.085-.212-.127-.382-.127-2.972,0-5.307.849-7.005,2.547-1.613,1.613-2.844,3.651-3.693,6.113-.849,2.378-1.401,4.925-1.656,7.642-.17,2.632-.255,5.052-.255,7.259c0,1.698.17,3.439.51,5.222.339,1.698.721,3.396,1.146,5.094.424,1.613.807,3.311,1.146,5.094.34,1.698.51,3.481.51,5.349c0,3.566-1.911,5.349-5.732,5.349-2.122,0-4.33-1.103-6.622-3.311-2.293-2.292-4.585-5.179-6.877-8.66-2.208-3.481-4.331-7.302-6.368-11.462-2.038-4.246-3.821-8.364-5.349-12.354-1.529-3.991-2.76-7.599-3.694-10.826-.849-3.226-1.273-5.603-1.273-7.132Z" fill="#ff3873"/><path d="M297.388,210.68c0-4.924,1.231-9.297,3.693-13.117c2.462-3.821,5.519-7.132,9.17-9.934c3.651-2.887,7.599-5.307,11.844-7.26c4.245-2.037,8.193-3.693,11.844-4.967c3.651-1.358,6.708-2.419,9.17-3.184c2.462-.849,3.694-1.528,3.694-2.037c0-2.972-.17-5.859-.51-8.661-.255-2.886-.552-5.773-.891-8.66-.34-2.887-.68-5.731-1.019-8.533-.255-2.887-.382-5.731-.382-8.533v-8.278c3.481-1.274,5.943-1.146,7.386.382c1.529,1.528,1.783,4.16.765,7.896.339,1.868.806,4.797,1.401,8.788.594,3.99,1.231,8.49,1.91,13.5.764,5.009,1.528,10.273,2.292,15.792.849,5.519,1.614,10.825,2.293,15.92.764,5.009,1.401,9.509,1.91,13.5.51,3.905.892,6.835,1.146,8.787.085.425.17,1.274.255,2.548.085,1.188.127,2.504.127,3.948.085,1.358.128,2.632.128,3.82.085,1.189.127,2.038.127,2.548-3.226,0-5.434-.128-6.622-.383-1.104-.254-1.826-.764-2.166-1.528-.254-.764-.382-1.868-.382-3.311s-.424-3.439-1.273-5.986c-3.142,2.462-6.113,4.5-8.915,6.113s-5.604,2.929-8.406,3.948c-2.802.934-5.646,1.571-8.533,1.911-2.802.424-5.816.636-9.042.636-2.717,0-5.349-.212-7.896-.636-2.463-.51-4.67-1.359-6.623-2.547-1.953-1.189-3.524-2.802-4.712-4.84-1.189-2.038-1.783-4.585-1.783-7.642Zm11.08-2.674c0,1.358.297,2.462.891,3.311.595.849,1.359,1.571,2.293,2.165.934.595,1.91,1.019,2.929,1.274c1.104.17,2.165.255,3.184.255c2.972,0,6.156-.552,9.552-1.656c3.481-1.189,6.665-2.802,9.552-4.84c2.971-2.122,5.391-4.627,7.259-7.514c1.953-2.886,2.929-6.028,2.929-9.424c0-2.632-.467-4.458-1.401-5.477-.934-1.018-2.717-1.528-5.349-1.528-2.717,0-5.901.637-9.552,1.91-3.566,1.274-7.047,2.972-10.443,5.095-3.311,2.122-6.113,4.627-8.405,7.514-2.293,2.802-3.439,5.773-3.439,8.915Z" fill="#ff3873"/><path d="M371.249,199.855c0-5.264,1.231-10.146,3.693-14.646c2.462-4.585,5.689-8.491,9.679-11.717c4.076-3.311,8.618-5.901,13.628-7.769c5.094-1.868,10.231-2.802,15.41-2.802c2.887,0,5.434.934,7.641,2.802c2.293,1.868,4.203,4.161,5.731,6.877c1.529,2.633,2.675,5.434,3.439,8.406.849,2.972,1.274,5.561,1.274,7.769c0,4.755-1.147,9.382-3.439,13.882-2.292,4.415-5.264,8.363-8.915,11.844-3.651,3.396-7.769,6.156-12.354,8.278-4.585,2.123-9.17,3.184-13.754,3.184-4.076,0-7.515-.679-10.316-2.037-2.802-1.444-5.052-3.312-6.75-5.604-1.698-2.377-2.972-5.137-3.821-8.278-.764-3.227-1.146-6.623-1.146-10.189Zm10.825,1.274c0,2.207.17,4.16.51,5.858.424,1.613,1.103,3.014,2.037,4.203c1.019,1.189,2.335,2.123,3.948,2.802c1.614.594,3.609.891,5.986.891c3.142,0,6.283-.849,9.425-2.547c3.141-1.783,5.943-3.99,8.405-6.622c2.547-2.717,4.585-5.689,6.113-8.916c1.529-3.226,2.293-6.367,2.293-9.424c0-1.358-.127-2.844-.382-4.458-.255-1.613-.679-3.099-1.274-4.457-.594-1.359-1.443-2.505-2.547-3.439s-2.505-1.401-4.203-1.401c-1.528,0-3.354.51-5.476,1.529-2.038,1.018-4.203,2.335-6.495,3.948-2.208,1.613-4.415,3.438-6.623,5.476-2.123,2.038-4.075,4.076-5.858,6.113-1.783,2.038-3.227,3.991-4.331,5.859-1.018,1.868-1.528,3.396-1.528,4.585Z" fill="#ff3873"/></g><mask id="eb2Gfj8DTkE208" mask-type="luminance" x="-150%" y="-150%" height="400%" width="400%"><path d="M520,-87h-540v540h540v-540Z" fill="#fff"/></mask></g><g mask="url(#eb2Gfj8DTkE213)"><g><path d="M71.1388,177.308c0-8.236,1.9104-14.349,5.7311-18.339c3.8208-3.991,9.6792-5.986,17.5754-5.986c3.2264,0,6.5377.297,9.9337.891c3.481.595,6.665,1.656,9.552,3.184c2.887,1.444,5.222,3.481,7.005,6.113c1.868,2.632,2.802,6.029,2.802,10.189c0,4.585-1.019,8.915-3.057,12.99-1.953,3.991-4.457,7.769-7.514,11.335-2.972,3.481-6.283,6.75-9.934,9.807-3.566,2.972-6.9198,5.816-10.0613,8.533-.1698.339-.3396,1.061-.5094,2.165-.0849,1.019-.1273,1.698-.1273,2.038c0,2.802.8066,5.603,2.4198,8.405c1.6981,2.887,3.5235,5.774,5.4762,8.661c1.953,2.971,3.736,6.028,5.349,9.169c1.613,3.142,2.42,6.411,2.42,9.807c0,2.038-.425,3.226-1.274,3.566-.849.425-2.632.637-5.349.637-1.6977-.679-3.3958-2.293-5.094-4.84-1.6132-2.462-3.2688-5.519-4.9669-9.17-1.6132-3.651-3.2264-7.768-4.8396-12.353-1.5283-4.5-3.0141-9.085-4.4575-13.755-1.3585-4.755-2.6745-9.424-3.9481-14.009-1.1887-4.67-2.25-8.958-3.184-12.863-.9339-3.906-1.783-7.26-2.5471-10.062-.6793-2.887-1.1463-4.924-1.401-6.113Zm10.8255,1.146c0,1.274.0849,3.142.2547,5.604.1698,2.377.5094,4.755,1.0188,7.132.5944,2.377,1.4434,4.458,2.5472,6.241c1.1038,1.698,2.632,2.547,4.5849,2.547c2.632,0,5.2641-.892,7.8962-2.675c2.7169-1.783,5.0939-4.033,7.1319-6.75c2.123-2.717,3.821-5.603,5.094-8.66c1.359-3.142,2.038-5.986,2.038-8.533c0-2.123-.509-3.778-1.528-4.967-1.019-1.274-2.335-2.25-3.948-2.929-1.529-.764-3.184-1.231-4.967-1.401-1.783-.255-3.4813-.382-5.0945-.382-4.8396,0-8.5755,1.316-11.2075,3.948-2.5472,2.547-3.8207,6.156-3.8207,10.825Z" fill="#ff83a8"/></g><mask id="eb2Gfj8DTkE213" mask-type="luminance" x="-150%" y="-150%" height="400%" width="400%"><path d="M520,-87h-540v540h540v-540Z" fill="#fff"/></mask></g><g mask="url(#eb2Gfj8DTkE218)"><g><path d="M136.594,176.544c0-.51,0-1.316,0-2.42.085-1.189.128-2.42.128-3.693.085-1.274.127-2.505.127-3.694.085-1.188.128-2.037.128-2.547.934-1.358,2.122-2.462,3.566-3.311c1.528-.849,3.056-1.528,4.584-2.038.255,4.585.977,9.467,2.166,14.646c1.188,5.18,2.462,10.401,3.82,15.665c1.359,5.18,2.547,10.316,3.566,15.411c1.104,5.094,1.656,9.849,1.656,14.264c0,3.82-1.953,5.731-5.859,5.731-2.377,0-4.372-.977-5.985-2.929-1.614-1.953-2.93-4.415-3.948-7.387-.934-3.057-1.699-6.41-2.293-10.061-.594-3.736-1.019-7.387-1.273-10.953-.17-3.566-.298-6.835-.383-9.807c0-2.971,0-5.264,0-6.877Zm1.783-47.759c1.614.679,2.972,1.783,4.076,3.311s1.571,2.929,1.401,4.203c-.085,1.189-1.019,2.038-2.802,2.547-1.783.425-4.755-.085-8.915-1.528c0-2.293.424-4.288,1.274-5.986.933-1.698,2.589-2.547,4.966-2.547Z" fill="#ff83a8"/></g><mask id="eb2Gfj8DTkE218" mask-type="luminance" x="-150%" y="-150%" height="400%" width="400%"><path d="M520,-87h-540v540h540v-540Z" fill="#fff"/></mask></g><g mask="url(#eb2Gfj8DTkE223)"><g><path d="M161.298,188.898c0-4.585.552-9.17,1.656-13.755s2.844-8.703,5.222-12.354c2.462-3.651,5.603-6.622,9.424-8.915c3.906-2.292,8.618-3.438,14.137-3.438c3.141,0,5.901.594,8.278,1.783c2.378,1.103,4.373,2.589,5.986,4.457s2.802,4.076,3.566,6.623c.849,2.462,1.274,5.052,1.274,7.769c0,4.33-1.019,8.533-3.057,12.608-1.953,4.075-4.627,7.684-8.024,10.825-3.311,3.057-7.132,5.392-11.462,7.005-4.33,1.528-8.745,1.868-13.245,1.019.085,2.462.892,4.457,2.42,5.986c1.613,1.443,3.523,2.547,5.731,3.311c2.207.764,4.5,1.274,6.877,1.528c2.378.17,4.5.255,6.368.255c1.953,0,3.778-.17,5.477-.509c1.698-.34,3.396-.722,5.094-1.147c1.698-.424,3.396-.806,5.094-1.146c1.783-.339,3.651-.509,5.604-.509.764,0,1.528.042,2.292.127.765.085,1.486.297,2.165.637.68.255,1.232.722,1.656,1.401.425.594.637,1.358.637,2.292c0,1.613-.594,2.972-1.783,4.076-1.189,1.019-2.717,1.91-4.585,2.674-1.783.764-3.778,1.359-5.986,1.783-2.207.34-4.372.637-6.495.892-2.038.17-3.948.254-5.731.254-1.698.085-2.972.128-3.821.128-5.434,0-10.316-.849-14.646-2.547-4.33-1.783-7.981-4.203-10.953-7.26-2.972-3.141-5.264-6.877-6.877-11.207-1.528-4.415-2.293-9.297-2.293-14.646Zm13.5-8.279c0,2.972.382,5.137,1.147,6.496.849,1.358,2.844,2.037,5.985,2.037c2.208,0,4.373-.382,6.496-1.146c2.122-.849,4.033-1.995,5.731-3.439c1.783-1.443,3.184-3.141,4.203-5.094c1.018-1.953,1.528-4.075,1.528-6.368c0-1.273-.128-2.589-.382-3.948-.17-1.358-.595-2.589-1.274-3.693-.679-1.189-1.571-2.123-2.674-2.802-1.019-.764-2.378-1.146-4.076-1.146-2.547,0-4.882.594-7.004,1.783-2.038,1.103-3.779,2.589-5.222,4.457-1.444,1.783-2.547,3.821-3.311,6.113-.765,2.208-1.147,4.458-1.147,6.75Z" fill="#ff83a8"/></g><mask id="eb2Gfj8DTkE223" mask-type="luminance" x="-150%" y="-150%" height="400%" width="400%"><path d="M520,-87h-540v540h540v-540Z" fill="#fff"/></mask></g><g mask="url(#eb2Gfj8DTkE228)"><g><path d="M232.357,170.813c0-.764.042-1.528.127-2.293.085-.849.255-1.57.51-2.165.254-.679.637-1.231,1.146-1.655.594-.425,1.401-.637,2.42-.637.849,0,1.783.679,2.802,2.038c1.103,1.273,2.207,2.929,3.311,4.967c1.104,1.952,2.165,4.117,3.184,6.495c1.104,2.377,2.038,4.585,2.802,6.622.849,1.953,1.528,3.651,2.037,5.095.51,1.443.807,2.207.892,2.292c1.104-2.972,2.335-6.198,3.693-9.679c1.359-3.481,3.014-6.708,4.967-9.679c2.038-3.057,4.415-5.604,7.132-7.642c2.802-2.037,6.198-3.056,10.189-3.056c2.038,0,3.948.339,5.731,1.019c1.868.594,3.481,1.528,4.84,2.801c1.443,1.189,2.589,2.632,3.438,4.331.849,1.698,1.274,3.651,1.274,5.858c0,1.868-.764,3.184-2.293,3.948-1.443.764-3.099,1.146-4.966,1.146h-1.274l-5.476-5.476c-.17,0-.298-.042-.383-.127-.169,0-.339,0-.509,0-.085-.085-.212-.128-.382-.128-2.972,0-5.307.849-7.005,2.547-1.613,1.614-2.844,3.651-3.693,6.114-.849,2.377-1.401,4.924-1.656,7.641-.17,2.632-.254,5.052-.254,7.259c0,1.699.169,3.439.509,5.222.34,1.698.722,3.396,1.146,5.094.425,1.614.807,3.312,1.146,5.095.34,1.698.51,3.481.51,5.349c0,3.566-1.911,5.349-5.731,5.349-2.123,0-4.33-1.104-6.623-3.311-2.292-2.293-4.585-5.18-6.877-8.661-2.208-3.481-4.33-7.302-6.368-11.462-2.038-4.245-3.821-8.363-5.349-12.354-1.528-3.99-2.76-7.599-3.693-10.825-.85-3.227-1.274-5.604-1.274-7.132Z" fill="#ff83a8"/></g><mask id="eb2Gfj8DTkE228" mask-type="luminance" x="-150%" y="-150%" height="400%" width="400%"><path d="M520,-87h-540v540h540v-540Z" fill="#fff"/></mask></g><g mask="url(#eb2Gfj8DTkE233)"><g><path d="M294.628,209.275c0-4.925,1.232-9.297,3.694-13.118s5.519-7.132,9.17-9.934c3.651-2.887,7.599-5.306,11.844-7.259c4.245-2.038,8.193-3.694,11.844-4.967c3.651-1.359,6.708-2.42,9.17-3.184c2.462-.849,3.693-1.528,3.693-2.038c0-2.972-.169-5.858-.509-8.66-.255-2.887-.552-5.774-.892-8.661-.339-2.886-.679-5.731-1.018-8.533-.255-2.886-.383-5.731-.383-8.533v-8.278c3.482-1.273,5.944-1.146,7.387.382c1.528,1.529,1.783,4.161.764,7.896.34,1.868.807,4.798,1.401,8.788.595,3.991,1.231,8.491,1.911,13.5.764,5.01,1.528,10.274,2.292,15.792.849,5.519,1.613,10.826,2.293,15.92.764,5.01,1.4,9.51,1.91,13.5.509,3.906.891,6.835,1.146,8.788.085.424.17,1.273.255,2.547.085,1.189.127,2.505.127,3.948.085,1.359.128,2.632.128,3.821.084,1.188.127,2.038.127,2.547-3.226,0-5.434-.127-6.623-.382-1.103-.255-1.825-.764-2.165-1.528-.254-.765-.382-1.868-.382-3.312c0-1.443-.424-3.438-1.273-5.986-3.142,2.463-6.114,4.5-8.915,6.114-2.802,1.613-5.604,2.929-8.406,3.948-2.802.934-5.646,1.571-8.533,1.91-2.802.425-5.816.637-9.042.637-2.717,0-5.35-.212-7.897-.637-2.462-.509-4.669-1.358-6.622-2.547s-3.524-2.802-4.713-4.84c-1.188-2.037-1.783-4.585-1.783-7.641Zm11.081-2.675c0,1.359.297,2.463.891,3.312s1.359,1.57,2.293,2.165c.934.594,1.91,1.019,2.929,1.273c1.104.17,2.165.255,3.184.255c2.971,0,6.155-.552,9.552-1.656c3.481-1.188,6.665-2.801,9.551-4.839c2.972-2.123,5.392-4.628,7.26-7.514c1.953-2.887,2.929-6.029,2.929-9.425c0-2.632-.467-4.457-1.401-5.476s-2.717-1.528-5.349-1.528c-2.717,0-5.901.636-9.552,1.91-3.566,1.273-7.047,2.972-10.443,5.094-3.311,2.123-6.113,4.628-8.406,7.514-2.292,2.802-3.438,5.774-3.438,8.915Z" fill="#ff83a8"/></g><mask id="eb2Gfj8DTkE233" mask-type="luminance" x="-150%" y="-150%" height="400%" width="400%"><path d="M520,-87h-540v540h540v-540Z" fill="#fff"/></mask></g><g mask="url(#eb2Gfj8DTkE238)"><g><path d="M368.49,198.449c0-5.264,1.231-10.146,3.693-14.646c2.462-4.585,5.689-8.49,9.679-11.717c4.076-3.311,8.618-5.901,13.627-7.768c5.095-1.868,10.232-2.802,15.411-2.802c2.887,0,5.434.934,7.641,2.802c2.293,1.867,4.203,4.16,5.731,6.877c1.529,2.632,2.675,5.434,3.439,8.406.849,2.971,1.274,5.561,1.274,7.768c0,4.755-1.147,9.382-3.439,13.882-2.293,4.415-5.264,8.364-8.915,11.845-3.651,3.396-7.769,6.155-12.354,8.278s-9.17,3.184-13.754,3.184c-4.076,0-7.515-.679-10.316-2.038-2.802-1.443-5.052-3.311-6.75-5.604-1.699-2.377-2.972-5.136-3.821-8.278-.764-3.226-1.146-6.622-1.146-10.189Zm10.825,1.274c0,2.208.17,4.16.509,5.859.425,1.613,1.104,3.014,2.038,4.202c1.019,1.189,2.335,2.123,3.948,2.802c1.613.595,3.609.892,5.986.892c3.142,0,6.283-.849,9.425-2.547c3.141-1.783,5.943-3.991,8.405-6.623c2.547-2.717,4.585-5.689,6.113-8.915c1.529-3.227,2.293-6.368,2.293-9.425c0-1.358-.128-2.844-.382-4.457-.255-1.613-.68-3.099-1.274-4.458-.594-1.358-1.443-2.504-2.547-3.438s-2.505-1.401-4.203-1.401c-1.528,0-3.354.509-5.476,1.528-2.038,1.019-4.203,2.335-6.495,3.948-2.208,1.613-4.416,3.439-6.623,5.477-2.123,2.037-4.076,4.075-5.859,6.113-1.783,2.037-3.226,3.99-4.33,5.858-1.019,1.868-1.528,3.396-1.528,4.585Z" fill="#ff83a8"/></g><mask id="eb2Gfj8DTkE238" mask-type="luminance" x="-150%" y="-150%" height="400%" width="400%"><path d="M520,-87h-540v540h540v-540Z" fill="#fff"/></mask></g></g><g id="eb2Gfj8DTkE240" transform="translate(.000001 0.000001)" opacity="0"><g mask="url(#eb2Gfj8DTkE249)"><g><path d="M111.041,284.78c0-2.462-.17-4.84-.509-7.132-.34-2.377-.425-4.457-.255-6.241.17-1.867.807-3.353,1.911-4.457c1.188-1.104,3.311-1.656,6.367-1.656.934,1.953,1.826,4.925,2.675,8.915.934,3.991,1.825,8.576,2.674,13.755s1.656,10.825,2.42,16.939c.764,6.028,1.444,12.099,2.038,18.212.679,6.113,1.231,12.141,1.656,18.085.509,5.858.891,11.207,1.146,16.047-2.802,1.868-5.052,1.995-6.75.382s-3.099-4.33-4.203-8.151c-1.104-3.906-1.953-8.618-2.547-14.137-.594-5.604-1.189-11.377-1.783-17.321-.51-6.028-1.146-11.929-1.91-17.702-.765-5.859-1.741-11.038-2.93-15.538Z" fill="#ff3873"/><path d="M143.133,309.105c0-.509,0-1.316,0-2.419.085-1.189.127-2.42.127-3.694.085-1.273.128-2.504.128-3.693.084-1.189.127-2.038.127-2.547.934-1.359,2.123-2.463,3.566-3.312c1.528-.849,3.056-1.528,4.585-2.037.254,4.585.976,9.467,2.165,14.646s2.462,10.401,3.821,15.665c1.358,5.179,2.547,10.316,3.566,15.41c1.103,5.094,1.655,9.849,1.655,14.264c0,3.821-1.953,5.731-5.858,5.731-2.378,0-4.373-.976-5.986-2.929s-2.929-4.415-3.948-7.387c-.934-3.056-1.698-6.41-2.293-10.061-.594-3.736-1.018-7.387-1.273-10.953-.17-3.566-.297-6.835-.382-9.806c0-2.972,0-5.264,0-6.878Zm1.783-47.759c1.613.679,2.971,1.783,4.075,3.312c1.104,1.528,1.571,2.929,1.401,4.202-.085,1.189-1.019,2.038-2.802,2.547-1.783.425-4.754-.084-8.915-1.528c0-2.292.425-4.288,1.274-5.986.934-1.698,2.589-2.547,4.967-2.547Z" fill="#ff3873"/><path d="M192.289,351.134c1.359-.934,2.972-2.123,4.84-3.567c1.953-1.528,3.906-3.141,5.858-4.839c1.953-1.698,3.779-3.481,5.477-5.349s3.014-3.651,3.948-5.349c1.019-1.783,1.528-3.439,1.528-4.967s-.764-2.802-2.292-3.821c-2.717,0-5.689.128-8.915.382-3.227.17-6.453.255-9.679.255-3.227-.085-6.368-.382-9.425-.892-2.972-.509-5.646-1.443-8.023-2.801-2.378-1.359-4.288-3.269-5.732-5.732-1.358-2.547-2.037-5.773-2.037-9.679c0-4.585.849-8.703,2.547-12.353c1.783-3.736,4.118-7.005,7.005-9.807c2.886-2.887,6.113-5.391,9.679-7.514c3.651-2.208,7.302-4.076,10.953-5.604c2.207.594,4.245,1.656,6.113,3.184s3.481,3.226,4.839,5.094c-.594,1.868-1.783,3.312-3.566,4.331-1.698,1.018-3.693,1.91-5.986,2.674-2.207.764-4.542,1.571-7.004,2.42s-4.712,1.995-6.75,3.439c-1.953,1.358-3.609,3.183-4.967,5.476-1.359,2.207-2.038,5.137-2.038,8.788c0,2.717.679,4.712,2.038,5.985c1.358,1.274,3.141,2.166,5.349,2.675c2.207.424,4.712.594,7.514.509c2.802-.169,5.646-.382,8.533-.636c2.972-.255,5.858-.382,8.66-.382c2.802-.085,5.307.254,7.514,1.018c2.208.68,3.949,1.826,5.222,3.439c1.359,1.613,2.038,3.991,2.038,7.132c0,1.359-.467,3.099-1.401,5.222-.849,2.122-2.038,4.415-3.566,6.877-1.444,2.377-3.184,4.755-5.222,7.132-1.953,2.377-4.033,4.543-6.24,6.495-2.123,1.868-4.288,3.439-6.496,4.713-2.122,1.188-4.117,1.783-5.985,1.783-1.783,0-2.972-.637-3.566-1.911-.51-1.273-.765-2.547-.765-3.82Z" fill="#ff3873"/><path d="M274.429,294.077c.17-.17.297-.382.382-.637.17-.339.255-.594.255-.764c0-1.953-1.189-3.226-3.566-3.82-2.292-.68-5.179-.977-8.66-.892-3.481,0-7.26.17-11.335.509-3.991.34-7.727.51-11.208.51-3.481-.085-6.41-.51-8.787-1.274-2.293-.849-3.439-2.377-3.439-4.585c0-1.443.085-2.504.255-3.184.254-.764.594-1.273,1.019-1.528.424-.339.934-.509,1.528-.509.679-.085,1.401-.128,2.165-.128h3.311c1.019.085,2.675.213,4.967.382c2.293.085,4.882.213,7.769.383c2.887.084,5.901.254,9.042.509c3.227.17,6.241.34,9.043.509c2.887.17,5.434.34,7.641.51c2.293.17,4.033.297,5.222.382c1.528.934,2.802,1.783,3.821,2.547c1.103.764,1.953,1.528,2.547,2.293.679.764,1.146,1.613,1.401,2.547.339.849.509,1.952.509,3.311c0,2.887-.594,5.731-1.783,8.533-1.188,2.717-2.717,5.476-4.585,8.278-1.783,2.717-3.863,5.477-6.24,8.278-2.293,2.717-4.543,5.434-6.75,8.151-2.208,2.717-4.288,5.434-6.241,8.151-1.952,2.717-3.481,5.349-4.585,7.896h32.731c2.463,0,4.033.467,4.713,1.401.679.934,1.019,2.25,1.019,3.948c0,1.189-.128,2.293-.383,3.312-.254,1.019-1.146,1.783-2.674,2.292-4.076.34-8.193.849-12.354,1.529-4.16.679-8.32,1.358-12.481,2.037-4.16.679-8.363,1.274-12.608,1.783-4.161.51-8.321.764-12.481.764c0-6.113.934-11.971,2.802-17.575c1.952-5.689,4.415-11.165,7.386-16.429c3.057-5.264,6.368-10.359,9.934-15.283c3.651-4.925,7.217-9.637,10.698-14.137Z" fill="#ff3873"/><path d="M329.058,354.317c-1.358,1.189-2.802.637-4.33-1.655-1.444-2.293-2.929-5.731-4.458-10.316-1.528-4.67-3.056-10.231-4.585-16.684-1.443-6.453-2.844-13.288-4.202-20.505-1.359-7.217-2.675-14.518-3.948-21.905-1.189-7.472-2.25-14.477-3.184-21.014c0-1.189-.043-2.378-.128-3.566c0-1.274.128-2.42.382-3.439.34-1.104.892-2.08,1.656-2.929.849-.849,2.123-1.486,3.821-1.911.17-.084.509,0,1.019.255.594.17,1.188.425,1.783.764.594.255,1.103.552,1.528.892.509.339.849.637,1.019.891-1.104,15.878.721,31.33,5.476,46.359.255-.255.934-1.104,2.038-2.548c1.104-1.528,2.505-3.268,4.203-5.221c1.698-2.038,3.608-4.203,5.731-6.495c2.207-2.293,4.5-4.416,6.877-6.368c2.377-1.953,4.755-3.566,7.132-4.84c2.377-1.358,4.67-2.038,6.877-2.038c1.274,0,2.505.297,3.694.892c1.273.594,1.91,1.74,1.91,3.438c0,.17-.042.425-.127.765-.085.254-.128.467-.128.636-1.358,1.189-3.438,3.015-6.24,5.477-2.717,2.462-5.604,5.221-8.66,8.278-3.057,3.057-5.986,6.241-8.788,9.552s-4.925,6.453-6.368,9.424c-.255.51-.34.977-.255,1.401.085.34.17.764.255,1.274.934.339,2.42.849,4.458,1.528c2.037.679,4.287,1.486,6.75,2.42c2.462.849,5.094,1.783,7.896,2.802c2.802.934,5.434,1.868,7.896,2.802s4.67,1.783,6.622,2.547c2.038.679,3.567,1.189,4.585,1.528c1.189.51,2.165.849,2.93,1.019.764.17,1.358.425,1.783.764.424.255.721.637.891,1.146.17.51.255,1.274.255,2.293c0,2.462-.594,4.075-1.783,4.839-1.189.765-2.887,1.147-5.094,1.147-6.538-.425-12.949-1.783-19.232-4.076-6.283-2.377-12.65-5.221-19.103-8.533-.255,1.613-.17,3.481.255,5.604.509,2.123,1.103,4.245,1.783,6.368.679,2.123,1.316,4.203,1.91,6.24.679,2.038,1.061,3.864,1.146,5.477.17,1.613,0,2.887-.509,3.821-.51.933-1.656,1.4-3.439,1.4Z" fill="#ff3873"/><path d="M383.432,309.105c0-.509,0-1.316,0-2.419.085-1.189.127-2.42.127-3.694.085-1.273.128-2.504.128-3.693.085-1.189.127-2.038.127-2.547.934-1.359,2.123-2.463,3.566-3.312c1.528-.849,3.057-1.528,4.585-2.037.255,4.585.976,9.467,2.165,14.646s2.462,10.401,3.821,15.665c1.358,5.179,2.547,10.316,3.566,15.41c1.104,5.094,1.656,9.849,1.656,14.264c0,3.821-1.953,5.731-5.859,5.731-2.377,0-4.373-.976-5.986-2.929s-2.929-4.415-3.948-7.387c-.934-3.056-1.698-6.41-2.292-10.061-.595-3.736-1.019-7.387-1.274-10.953-.17-3.566-.297-6.835-.382-9.806c0-2.972,0-5.264,0-6.878Zm1.783-47.759c1.613.679,2.972,1.783,4.076,3.312c1.103,1.528,1.57,2.929,1.4,4.202-.084,1.189-1.018,2.038-2.801,2.547-1.783.425-4.755-.084-8.915-1.528c0-2.292.424-4.288,1.273-5.986.934-1.698,2.59-2.547,4.967-2.547Z" fill="#ff3873"/></g><mask id="eb2Gfj8DTkE249" mask-type="luminance" x="-150%" y="-150%" height="400%" width="400%"><path d="M520,-87h-540v540h540v-540Z" fill="#fff"/></mask></g><g mask="url(#eb2Gfj8DTkE259)"><g><path d="M108.282,283.374c0-2.462-.17-4.84-.51-7.132-.34-2.377-.424-4.458-.255-6.241.17-1.868.807-3.353,1.911-4.457c1.188-1.104,3.311-1.656,6.368-1.656.934,1.953,1.825,4.925,2.674,8.915.934,3.991,1.826,8.576,2.675,13.755s1.655,10.825,2.419,16.938c.765,6.029,1.444,12.099,2.038,18.213.679,6.113,1.231,12.141,1.656,18.084.509,5.859.891,11.208,1.146,16.048-2.802,1.867-5.052,1.995-6.75.382-1.698-1.614-3.099-4.331-4.203-8.151-1.103-3.906-1.953-8.618-2.547-14.137-.594-5.604-1.189-11.377-1.783-17.321-.509-6.028-1.146-11.929-1.91-17.702-.764-5.859-1.741-11.038-2.929-15.538Z" fill="#ff3873"/><path d="M140.373,307.699c0-.509,0-1.316,0-2.42.085-1.188.127-2.419.127-3.693.085-1.273.128-2.505.128-3.693.085-1.189.127-2.038.127-2.547.934-1.359,2.123-2.463,3.566-3.312c1.528-.849,3.057-1.528,4.585-2.037.255,4.584.976,9.466,2.165,14.646c1.189,5.179,2.462,10.401,3.821,15.665c1.358,5.179,2.547,10.316,3.566,15.41c1.104,5.094,1.656,9.849,1.656,14.264c0,3.821-1.953,5.731-5.859,5.731-2.377,0-4.373-.976-5.986-2.929s-2.929-4.415-3.948-7.387c-.934-3.056-1.698-6.41-2.292-10.061-.595-3.736-1.019-7.387-1.274-10.953-.17-3.566-.297-6.835-.382-9.806c0-2.972,0-5.265,0-6.878Zm1.783-47.759c1.613.679,2.972,1.783,4.076,3.311c1.103,1.529,1.57,2.93,1.4,4.203-.084,1.189-1.018,2.038-2.801,2.547-1.783.425-4.755-.085-8.915-1.528c0-2.292.424-4.288,1.273-5.986.934-1.698,2.59-2.547,4.967-2.547Z" fill="#ff3873"/><path d="M189.53,349.727c1.358-.934,2.971-2.122,4.839-3.566c1.953-1.528,3.906-3.141,5.859-4.839s3.778-3.481,5.476-5.349s3.014-3.651,3.948-5.349c1.019-1.783,1.529-3.439,1.529-4.967c0-1.529-.765-2.802-2.293-3.821-2.717,0-5.689.127-8.915.382-3.226.17-6.453.255-9.679.255-3.227-.085-6.368-.382-9.425-.892-2.971-.509-5.646-1.443-8.023-2.802-2.378-1.358-4.288-3.268-5.731-5.731-1.359-2.547-2.038-5.773-2.038-9.679c0-4.585.849-8.703,2.547-12.354c1.783-3.735,4.118-7.004,7.005-9.806c2.887-2.887,6.113-5.392,9.679-7.514c3.651-2.208,7.302-4.076,10.953-5.604c2.207.594,4.245,1.656,6.113,3.184s3.481,3.226,4.84,5.094c-.595,1.868-1.783,3.312-3.566,4.33-1.699,1.019-3.694,1.911-5.986,2.675-2.208.764-4.543,1.571-7.005,2.42s-4.712,1.995-6.75,3.438c-1.953,1.359-3.608,3.184-4.967,5.477-1.358,2.207-2.038,5.137-2.038,8.787c0,2.717.68,4.713,2.038,5.986c1.359,1.274,3.142,2.165,5.349,2.675c2.208.424,4.712.594,7.514.509c2.802-.17,5.646-.382,8.533-.637c2.972-.254,5.859-.382,8.661-.382c2.801-.085,5.306.255,7.514,1.019c2.207.679,3.948,1.826,5.221,3.439c1.359,1.613,2.038,3.99,2.038,7.132c0,1.358-.467,3.099-1.401,5.222-.849,2.122-2.038,4.415-3.566,6.877-1.443,2.377-3.184,4.755-5.222,7.132-1.952,2.377-4.033,4.542-6.24,6.495-2.123,1.868-4.288,3.439-6.495,4.712-2.123,1.189-4.118,1.783-5.986,1.783-1.783,0-2.972-.636-3.566-1.91-.51-1.273-.764-2.547-.764-3.821Z" fill="#ff3873"/><path d="M271.669,292.671c.17-.17.298-.382.383-.637.169-.339.254-.594.254-.764c0-1.953-1.188-3.226-3.566-3.821-2.292-.679-5.179-.976-8.66-.891-3.481,0-7.26.17-11.335.509-3.991.34-7.726.51-11.207.51-3.482-.085-6.411-.51-8.788-1.274-2.293-.849-3.439-2.377-3.439-4.585c0-1.443.085-2.504.255-3.184.255-.764.594-1.273,1.019-1.528.424-.34.934-.509,1.528-.509.679-.085,1.401-.128,2.165-.128h3.311c1.019.085,2.675.212,4.967.382c2.293.085,4.882.213,7.769.382c2.887.085,5.901.255,9.043.51c3.226.17,6.24.339,9.042.509c2.887.17,5.434.34,7.642.51c2.292.169,4.033.297,5.221.382c1.528.934,2.802,1.783,3.821,2.547c1.104.764,1.953,1.528,2.547,2.292.679.764,1.146,1.614,1.401,2.547.34.85.509,1.953.509,3.312c0,2.887-.594,5.731-1.783,8.533-1.188,2.717-2.717,5.476-4.584,8.278-1.783,2.717-3.864,5.476-6.241,8.278-2.292,2.717-4.542,5.434-6.75,8.151-2.207,2.717-4.288,5.434-6.24,8.151-1.953,2.717-3.482,5.349-4.585,7.896h32.731c2.462,0,4.033.467,4.712,1.401s1.019,2.25,1.019,3.948c0,1.189-.128,2.293-.382,3.312-.255,1.018-1.147,1.783-2.675,2.292-4.075.34-8.193.849-12.354,1.528-4.16.68-8.32,1.359-12.481,2.038-4.16.679-8.363,1.274-12.608,1.783-4.16.51-8.321.764-12.481.764c0-6.113.934-11.971,2.802-17.575c1.953-5.689,4.415-11.165,7.386-16.429c3.057-5.264,6.368-10.359,9.934-15.283c3.651-4.925,7.217-9.637,10.698-14.137Z" fill="#ff3873"/><path d="M326.298,352.911c-1.359,1.189-2.802.637-4.331-1.655-1.443-2.293-2.929-5.731-4.457-10.316-1.528-4.67-3.057-10.231-4.585-16.684-1.443-6.453-2.844-13.288-4.203-20.505-1.358-7.217-2.674-14.519-3.948-21.905-1.189-7.472-2.25-14.477-3.184-21.014c0-1.189-.042-2.378-.127-3.566c0-1.274.127-2.42.382-3.439.339-1.104.891-2.08,1.655-2.929.85-.849,2.123-1.486,3.821-1.911.17-.085.51,0,1.019.255.594.17,1.189.425,1.783.764.594.255,1.104.552,1.528.892.51.339.849.636,1.019.891-1.104,15.877.722,31.33,5.477,46.358.254-.254.934-1.103,2.037-2.547c1.104-1.528,2.505-3.269,4.203-5.221c1.698-2.038,3.609-4.203,5.731-6.496c2.208-2.292,4.5-4.415,6.878-6.368c2.377-1.952,4.754-3.566,7.132-4.839c2.377-1.359,4.669-2.038,6.877-2.038c1.274,0,2.505.297,3.693.892c1.274.594,1.911,1.74,1.911,3.438c0,.17-.043.425-.128.764-.085.255-.127.467-.127.637-1.358,1.189-3.439,3.014-6.241,5.477-2.716,2.462-5.603,5.221-8.66,8.278-3.056,3.056-5.986,6.24-8.788,9.552-2.801,3.311-4.924,6.453-6.367,9.424-.255.51-.34.977-.255,1.401.085.34.17.764.255,1.274.934.339,2.419.849,4.457,1.528s4.288,1.486,6.75,2.42c2.462.849,5.094,1.783,7.896,2.802c2.802.934,5.434,1.868,7.896,2.802c2.463.934,4.67,1.783,6.623,2.547c2.038.679,3.566,1.188,4.585,1.528c1.189.509,2.165.849,2.929,1.019s1.359.424,1.783.764c.425.255.722.637.892,1.146.169.51.254,1.274.254,2.293c0,2.462-.594,4.075-1.783,4.839-1.188.764-2.886,1.147-5.094,1.147-6.538-.425-12.948-1.784-19.231-4.076-6.283-2.377-12.651-5.222-19.104-8.533-.254,1.613-.169,3.481.255,5.604.509,2.122,1.104,4.245,1.783,6.368.679,2.122,1.316,4.203,1.91,6.24.68,2.038,1.062,3.863,1.147,5.477.169,1.613,0,2.886-.51,3.82-.509.934-1.655,1.401-3.438,1.401Z" fill="#ff3873"/><path d="M380.672,307.699c0-.509,0-1.316,0-2.42.085-1.188.127-2.419.127-3.693.085-1.273.127-2.505.127-3.693.085-1.189.128-2.038.128-2.547.934-1.359,2.122-2.463,3.566-3.312c1.528-.849,3.056-1.528,4.585-2.037.254,4.584.976,9.466,2.165,14.646c1.188,5.179,2.462,10.401,3.82,15.665c1.359,5.179,2.548,10.316,3.566,15.41c1.104,5.094,1.656,9.849,1.656,14.264c0,3.821-1.953,5.731-5.858,5.731-2.378,0-4.373-.976-5.986-2.929s-2.929-4.415-3.948-7.387c-.934-3.056-1.698-6.41-2.293-10.061-.594-3.736-1.019-7.387-1.273-10.953-.17-3.566-.297-6.835-.382-9.806c0-2.972,0-5.265,0-6.878Zm1.783-47.759c1.613.679,2.971,1.783,4.075,3.311c1.104,1.529,1.571,2.93,1.401,4.203-.085,1.189-1.019,2.038-2.802,2.547-1.783.425-4.755-.085-8.915-1.528c0-2.292.425-4.288,1.274-5.986.934-1.698,2.589-2.547,4.967-2.547Z" fill="#ff3873"/></g><mask id="eb2Gfj8DTkE259" mask-type="luminance" x="-150%" y="-150%" height="400%" width="400%"><path d="M520,-87h-540v540h540v-540Z" fill="#fff"/></mask></g><g mask="url(#eb2Gfj8DTkE264)"><g><path d="M105.522,281.968c0-2.463-.17-4.84-.51-7.132-.339-2.378-.424-4.458-.254-6.241.169-1.868.806-3.354,1.91-4.457c1.189-1.104,3.311-1.656,6.368-1.656.934,1.953,1.825,4.924,2.674,8.915.934,3.99,1.826,8.575,2.675,13.755.849,5.179,1.656,10.825,2.42,16.938.764,6.028,1.443,12.099,2.037,18.212.68,6.114,1.232,12.142,1.656,18.085.51,5.859.892,11.208,1.146,16.047-2.802,1.868-5.052,1.996-6.75.382-1.698-1.613-3.099-4.33-4.202-8.151-1.104-3.905-1.953-8.617-2.548-14.136-.594-5.604-1.188-11.378-1.783-17.321-.509-6.028-1.146-11.929-1.91-17.703-.764-5.858-1.741-11.037-2.929-15.537Z" fill="#ff83a8"/></g><mask id="eb2Gfj8DTkE264" mask-type="luminance" x="-150%" y="-150%" height="400%" width="400%"><path d="M520,-87h-540v540h540v-540Z" fill="#fff"/></mask></g><g mask="url(#eb2Gfj8DTkE269)"><g><path d="M137.613,306.293c0-.509,0-1.316,0-2.42.085-1.188.128-2.42.128-3.693.085-1.274.127-2.505.127-3.694.085-1.188.127-2.037.127-2.547.934-1.358,2.123-2.462,3.566-3.311c1.529-.849,3.057-1.528,4.585-2.038.255,4.585.977,9.467,2.165,14.646c1.189,5.18,2.463,10.401,3.821,15.665c1.359,5.18,2.547,10.316,3.566,15.411c1.104,5.094,1.656,9.849,1.656,14.264c0,3.821-1.953,5.731-5.859,5.731-2.377,0-4.372-.977-5.986-2.929-1.613-1.953-2.929-4.415-3.948-7.387-.934-3.057-1.698-6.41-2.292-10.061-.594-3.736-1.019-7.387-1.274-10.953-.169-3.566-.297-6.835-.382-9.807c0-2.971,0-5.264,0-6.877Zm1.783-47.759c1.613.679,2.972,1.783,4.076,3.311s1.57,2.929,1.401,4.203c-.085,1.189-1.019,2.038-2.802,2.547-1.783.425-4.755-.085-8.915-1.528c0-2.293.424-4.288,1.273-5.986.934-1.698,2.59-2.547,4.967-2.547Z" fill="#ff83a8"/></g><mask id="eb2Gfj8DTkE269" mask-type="luminance" x="-150%" y="-150%" height="400%" width="400%"><path d="M520,-87h-540v540h540v-540Z" fill="#fff"/></mask></g><g mask="url(#eb2Gfj8DTkE274)"><g><path d="M186.77,348.321c1.358-.934,2.972-2.123,4.84-3.566c1.952-1.528,3.905-3.141,5.858-4.84c1.953-1.698,3.778-3.481,5.476-5.349c1.698-1.867,3.014-3.65,3.948-5.349c1.019-1.783,1.529-3.438,1.529-4.967c0-1.528-.764-2.801-2.293-3.82-2.717,0-5.688.127-8.915.382-3.226.17-6.453.254-9.679.254-3.226-.084-6.368-.382-9.424-.891-2.972-.509-5.647-1.443-8.024-2.802-2.377-1.358-4.288-3.269-5.731-5.731-1.359-2.547-2.038-5.774-2.038-9.679c0-4.585.849-8.703,2.547-12.354c1.783-3.736,4.118-7.005,7.005-9.806c2.887-2.887,6.113-5.392,9.679-7.515c3.651-2.207,7.302-4.075,10.953-5.603c2.208.594,4.245,1.655,6.113,3.184c1.868,1.528,3.481,3.226,4.84,5.094-.595,1.868-1.783,3.311-3.566,4.33-1.698,1.019-3.694,1.91-5.986,2.675-2.208.764-4.542,1.57-7.005,2.419-2.462.849-4.712,1.996-6.75,3.439-1.953,1.359-3.608,3.184-4.967,5.476-1.358,2.208-2.037,5.137-2.037,8.788c0,2.717.679,4.712,2.037,5.986c1.359,1.274,3.142,2.165,5.349,2.675c2.208.424,4.713.594,7.514.509c2.802-.17,5.647-.382,8.533-.637c2.972-.255,5.859-.382,8.661-.382c2.802-.085,5.306.255,7.514,1.019c2.207.679,3.948,1.825,5.222,3.439c1.358,1.613,2.037,3.99,2.037,7.132c0,1.358-.467,3.099-1.401,5.221-.849,2.123-2.037,4.415-3.566,6.878-1.443,2.377-3.184,4.754-5.221,7.132-1.953,2.377-4.033,4.542-6.241,6.495-2.122,1.868-4.288,3.439-6.495,4.712-2.123,1.189-4.118,1.783-5.986,1.783-1.783,0-2.972-.637-3.566-1.91-.509-1.274-.764-2.547-.764-3.821Z" fill="#ff83a8"/></g><mask id="eb2Gfj8DTkE274" mask-type="luminance" x="-150%" y="-150%" height="400%" width="400%"><path d="M520,-87h-540v540h540v-540Z" fill="#fff"/></mask></g><g mask="url(#eb2Gfj8DTkE279)"><g><path d="M268.91,291.265c.17-.17.297-.382.382-.637.17-.34.255-.594.255-.764c0-1.953-1.189-3.227-3.567-3.821-2.292-.679-5.179-.976-8.66-.891-3.481,0-7.259.169-11.335.509-3.99.34-7.726.509-11.207.509-3.481-.084-6.411-.509-8.788-1.273-2.292-.849-3.439-2.377-3.439-4.585c0-1.443.085-2.505.255-3.184.255-.764.595-1.274,1.019-1.528.425-.34.934-.51,1.528-.51.68-.085,1.401-.127,2.165-.127h3.312c1.019.085,2.674.212,4.967.382c2.292.085,4.882.212,7.769.382c2.886.085,5.9.255,9.042.51c3.226.169,6.24.339,9.042.509c2.887.17,5.434.34,7.642.509c2.292.17,4.033.298,5.221.382c1.529.934,2.802,1.783,3.821,2.548c1.104.764,1.953,1.528,2.547,2.292.68.764,1.147,1.613,1.401,2.547.34.849.51,1.953.51,3.312c0,2.886-.595,5.731-1.783,8.533-1.189,2.716-2.717,5.476-4.585,8.278-1.783,2.717-3.863,5.476-6.241,8.278-2.292,2.717-4.542,5.434-6.75,8.151-2.207,2.717-4.287,5.434-6.24,8.151s-3.481,5.349-4.585,7.896h32.731c2.462,0,4.033.467,4.712,1.401s1.019,2.25,1.019,3.948c0,1.189-.127,2.292-.382,3.311s-1.146,1.783-2.675,2.293c-4.075.339-8.193.849-12.353,1.528-4.161.679-8.321,1.359-12.481,2.038-4.161.679-8.364,1.273-12.609,1.783-4.16.509-8.321.764-12.481.764c0-6.113.934-11.972,2.802-17.575c1.953-5.689,4.415-11.165,7.387-16.43c3.056-5.264,6.368-10.358,9.934-15.283c3.651-4.924,7.217-9.636,10.698-14.136Z" fill="#ff83a8"/></g><mask id="eb2Gfj8DTkE279" mask-type="luminance" x="-150%" y="-150%" height="400%" width="400%"><path d="M520,-87h-540v540h540v-540Z" fill="#fff"/></mask></g><g mask="url(#eb2Gfj8DTkE284)"><g><path d="M323.538,351.505c-1.358,1.189-2.801.637-4.33-1.656-1.443-2.292-2.929-5.731-4.457-10.316-1.528-4.669-3.057-10.231-4.585-16.683-1.443-6.453-2.844-13.288-4.203-20.505-1.358-7.217-2.674-14.519-3.948-21.906-1.189-7.471-2.25-14.476-3.184-21.014c0-1.188-.042-2.377-.127-3.566c0-1.273.127-2.42.382-3.438.339-1.104.891-2.081,1.655-2.93.849-.849,2.123-1.485,3.821-1.91.17-.085.51,0,1.019.255.594.17,1.189.424,1.783.764.594.255,1.104.552,1.528.891.51.34.849.637,1.019.892-1.104,15.877.722,31.33,5.477,46.358.254-.255.934-1.104,2.037-2.547c1.104-1.528,2.505-3.269,4.203-5.222c1.698-2.037,3.609-4.202,5.731-6.495c2.208-2.292,4.5-4.415,6.878-6.368c2.377-1.953,4.754-3.566,7.132-4.839c2.377-1.359,4.669-2.038,6.877-2.038c1.273,0,2.505.297,3.693.891c1.274.595,1.911,1.741,1.911,3.439c0,.17-.043.425-.128.764-.085.255-.127.467-.127.637-1.359,1.189-3.439,3.014-6.241,5.476-2.717,2.463-5.603,5.222-8.66,8.279-3.057,3.056-5.986,6.24-8.788,9.551-2.801,3.312-4.924,6.453-6.368,9.425-.254.509-.339.976-.254,1.401.085.339.17.764.254,1.273.934.34,2.42.849,4.458,1.529c2.038.679,4.288,1.486,6.75,2.42c2.462.849,5.094,1.783,7.896,2.801c2.802.934,5.434,1.868,7.896,2.802c2.463.934,4.67,1.783,6.623,2.547c2.038.68,3.566,1.189,4.585,1.529c1.189.509,2.165.849,2.929,1.019.764.169,1.359.424,1.783.764.425.254.722.637.892,1.146.169.509.254,1.274.254,2.292c0,2.463-.594,4.076-1.783,4.84-1.188.764-2.886,1.146-5.094,1.146-6.538-.424-12.948-1.783-19.231-4.075-6.283-2.378-12.651-5.222-19.104-8.533-.254,1.613-.17,3.481.255,5.604.509,2.122,1.104,4.245,1.783,6.367.679,2.123,1.316,4.203,1.91,6.241.68,2.038,1.062,3.863,1.147,5.476.169,1.614,0,2.887-.51,3.821-.509.934-1.656,1.401-3.439,1.401Z" fill="#ff83a8"/></g><mask id="eb2Gfj8DTkE284" mask-type="luminance" x="-150%" y="-150%" height="400%" width="400%"><path d="M520,-87h-540v540h540v-540Z" fill="#fff"/></mask></g><g mask="url(#eb2Gfj8DTkE289)"><g><path d="M377.913,306.293c0-.509,0-1.316,0-2.42.084-1.188.127-2.42.127-3.693.085-1.274.127-2.505.127-3.694.085-1.188.128-2.037.128-2.547.934-1.358,2.122-2.462,3.566-3.311c1.528-.849,3.056-1.528,4.585-2.038.254,4.585.976,9.467,2.165,14.646c1.188,5.18,2.462,10.401,3.82,15.665c1.359,5.18,2.548,10.316,3.566,15.411c1.104,5.094,1.656,9.849,1.656,14.264c0,3.821-1.953,5.731-5.858,5.731-2.378,0-4.373-.977-5.986-2.929-1.613-1.953-2.929-4.415-3.948-7.387-.934-3.057-1.698-6.41-2.293-10.061-.594-3.736-1.019-7.387-1.273-10.953-.17-3.566-.298-6.835-.382-9.807c0-2.971,0-5.264,0-6.877Zm1.783-47.759c1.613.679,2.971,1.783,4.075,3.311s1.571,2.929,1.401,4.203c-.085,1.189-1.019,2.038-2.802,2.547-1.783.425-4.755-.085-8.915-1.528c0-2.293.425-4.288,1.274-5.986.934-1.698,2.589-2.547,4.967-2.547Z" fill="#ff83a8"/></g><mask id="eb2Gfj8DTkE289" mask-type="luminance" x="-150%" y="-150%" height="400%" width="400%"><path d="M520,-87h-540v540h540v-540Z" fill="#fff"/></mask></g><g mask="url(#eb2Gfj8DTkE299)"><g><path d="M111.668,291.131c0-2.462-.169-4.84-.509-7.132-.34-2.378-.425-4.458-.255-6.241.17-1.868.807-3.354,1.911-4.457c1.188-1.104,3.311-1.656,6.367-1.656.934,1.953,1.826,4.925,2.675,8.915.934,3.991,1.825,8.576,2.675,13.755.849,5.179,1.655,10.825,2.419,16.938.764,6.029,1.444,12.099,2.038,18.212.679,6.114,1.231,12.142,1.656,18.085.509,5.859.891,11.208,1.146,16.047-2.802,1.868-5.052,1.996-6.75.382-1.698-1.613-3.099-4.33-4.203-8.15-1.104-3.906-1.953-8.618-2.547-14.137-.594-5.604-1.189-11.377-1.783-17.321-.509-6.028-1.146-11.929-1.91-17.703-.765-5.858-1.741-11.037-2.93-15.537Z" fill="#ff3873"/><path d="M143.759,315.456c0-.509,0-1.316,0-2.42.085-1.188.128-2.419.128-3.693.085-1.274.127-2.505.127-3.693.085-1.189.127-2.038.127-2.548.934-1.358,2.123-2.462,3.566-3.311c1.529-.849,3.057-1.528,4.585-2.038.255,4.585.977,9.467,2.165,14.647c1.189,5.179,2.463,10.4,3.821,15.665c1.359,5.179,2.547,10.316,3.566,15.41c1.104,5.094,1.656,9.849,1.656,14.264c0,3.821-1.953,5.731-5.859,5.731-2.377,0-4.372-.976-5.986-2.929-1.613-1.953-2.929-4.415-3.948-7.387-.934-3.057-1.698-6.41-2.292-10.061-.594-3.736-1.019-7.387-1.274-10.953-.169-3.566-.297-6.835-.382-9.807c0-2.971,0-5.264,0-6.877Zm1.783-47.759c1.614.679,2.972,1.783,4.076,3.311c1.104,1.529,1.571,2.929,1.401,4.203-.085,1.189-1.019,2.038-2.802,2.547-1.783.425-4.755-.085-8.915-1.528c0-2.293.424-4.288,1.273-5.986.934-1.698,2.59-2.547,4.967-2.547Z" fill="#ff3873"/><path d="M192.916,357.484c1.358-.934,2.972-2.122,4.84-3.566c1.952-1.528,3.905-3.141,5.858-4.839c1.953-1.699,3.778-3.482,5.476-5.349c1.699-1.868,3.015-3.651,3.948-5.349c1.019-1.783,1.529-3.439,1.529-4.967c0-1.529-.764-2.802-2.293-3.821-2.717,0-5.688.127-8.915.382-3.226.17-6.453.255-9.679.255-3.226-.085-6.368-.382-9.424-.892-2.972-.509-5.647-1.443-8.024-2.802-2.377-1.358-4.288-3.269-5.731-5.731-1.359-2.547-2.038-5.773-2.038-9.679c0-4.585.849-8.703,2.547-12.354c1.783-3.736,4.118-7.004,7.005-9.806c2.887-2.887,6.113-5.392,9.679-7.514c3.651-2.208,7.302-4.076,10.953-5.604c2.208.594,4.245,1.655,6.113,3.184c1.868,1.528,3.481,3.226,4.84,5.094-.595,1.868-1.783,3.311-3.566,4.33-1.698,1.019-3.694,1.911-5.986,2.675-2.208.764-4.542,1.571-7.005,2.42-2.462.849-4.712,1.995-6.75,3.438-1.952,1.359-3.608,3.184-4.967,5.477-1.358,2.207-2.037,5.136-2.037,8.787c0,2.717.679,4.713,2.037,5.986c1.359,1.274,3.142,2.165,5.349,2.675c2.208.424,4.713.594,7.515.509c2.801-.17,5.646-.382,8.533-.637c2.971-.254,5.858-.382,8.66-.382c2.802-.085,5.306.255,7.514,1.019c2.207.679,3.948,1.826,5.222,3.439c1.358,1.613,2.037,3.99,2.037,7.132c0,1.358-.467,3.099-1.401,5.221-.849,2.123-2.037,4.416-3.566,6.878-1.443,2.377-3.184,4.754-5.221,7.132-1.953,2.377-4.033,4.542-6.241,6.495-2.122,1.868-4.288,3.439-6.495,4.712-2.123,1.189-4.118,1.783-5.986,1.783-1.783,0-2.972-.636-3.566-1.91-.509-1.274-.764-2.547-.764-3.821Z" fill="#ff3873"/><path d="M275.056,300.428c.17-.17.298-.382.382-.637.17-.34.255-.594.255-.764c0-1.953-1.189-3.226-3.566-3.821-2.292-.679-5.179-.976-8.66-.891-3.481,0-7.26.17-11.335.509-3.991.34-7.726.51-11.208.51-3.481-.085-6.41-.51-8.787-1.274-2.293-.849-3.439-2.377-3.439-4.585c0-1.443.085-2.505.255-3.184.255-.764.594-1.273,1.019-1.528.424-.34.934-.51,1.528-.51.679-.084,1.401-.127,2.165-.127h3.311c1.019.085,2.675.212,4.967.382c2.293.085,4.882.212,7.769.382c2.887.085,5.901.255,9.043.51c3.226.169,6.24.339,9.042.509c2.887.17,5.434.34,7.641.51c2.293.169,4.033.297,5.222.382c1.528.934,2.802,1.783,3.821,2.547c1.104.764,1.953,1.528,2.547,2.292.679.764,1.146,1.613,1.401,2.547.34.849.509,1.953.509,3.312c0,2.886-.594,5.731-1.783,8.533-1.188,2.717-2.717,5.476-4.585,8.278-1.783,2.717-3.863,5.476-6.24,8.278-2.293,2.717-4.543,5.434-6.75,8.151-2.208,2.717-4.288,5.434-6.241,8.151-1.952,2.717-3.481,5.349-4.584,7.896h32.731c2.462,0,4.033.467,4.712,1.401s1.019,2.25,1.019,3.948c0,1.189-.128,2.293-.382,3.311-.255,1.019-1.147,1.783-2.675,2.293-4.075.34-8.193.849-12.354,1.528-4.16.679-8.32,1.359-12.481,2.038-4.16.679-8.363,1.274-12.608,1.783-4.161.509-8.321.764-12.481.764c0-6.113.934-11.972,2.802-17.575c1.952-5.689,4.415-11.165,7.386-16.429c3.057-5.265,6.368-10.359,9.934-15.283c3.651-4.925,7.217-9.637,10.698-14.137Z" fill="#ff3873"/><path d="M329.684,360.668c-1.359,1.189-2.802.637-4.33-1.655-1.444-2.293-2.93-5.732-4.458-10.316-1.528-4.67-3.056-10.232-4.585-16.684-1.443-6.453-2.844-13.288-4.203-20.505-1.358-7.217-2.674-14.519-3.948-21.906-1.188-7.471-2.25-14.476-3.184-21.014c0-1.188-.042-2.377-.127-3.566c0-1.273.127-2.419.382-3.438.34-1.104.892-2.08,1.656-2.929.849-.85,2.122-1.486,3.82-1.911.17-.085.51,0,1.019.255.595.17,1.189.424,1.783.764.595.255,1.104.552,1.529.892.509.339.849.636,1.019.891-1.104,15.877.721,31.33,5.476,46.358.255-.254.934-1.103,2.038-2.547c1.103-1.528,2.504-3.269,4.202-5.222c1.699-2.037,3.609-4.202,5.732-6.495c2.207-2.292,4.5-4.415,6.877-6.368s4.755-3.566,7.132-4.839c2.377-1.359,4.67-2.038,6.877-2.038c1.274,0,2.505.297,3.694.891c1.273.595,1.91,1.741,1.91,3.439c0,.17-.042.425-.127.764-.085.255-.128.467-.128.637-1.358,1.189-3.438,3.014-6.24,5.476-2.717,2.463-5.604,5.222-8.661,8.279-3.056,3.056-5.985,6.24-8.787,9.552-2.802,3.311-4.925,6.452-6.368,9.424-.255.509-.34.976-.255,1.401.085.34.17.764.255,1.274.934.339,2.42.849,4.457,1.528c2.038.679,4.288,1.486,6.75,2.42c2.463.849,5.095,1.783,7.896,2.802c2.802.933,5.434,1.867,7.897,2.801c2.462.934,4.669,1.783,6.622,2.548c2.038.679,3.566,1.188,4.585,1.528c1.189.509,2.165.849,2.929,1.019.765.17,1.359.424,1.783.764.425.255.722.637.892,1.146.17.51.255,1.274.255,2.293c0,2.462-.595,4.075-1.783,4.839-1.189.764-2.887,1.146-5.095,1.146-6.537-.424-12.948-1.783-19.231-4.075-6.283-2.377-12.651-5.222-19.103-8.533-.255,1.613-.17,3.481.254,5.604.51,2.122,1.104,4.245,1.783,6.368.68,2.122,1.316,4.202,1.911,6.24.679,2.038,1.061,3.863,1.146,5.476.17,1.614,0,2.887-.51,3.821-.509.934-1.655,1.401-3.438,1.401Z" fill="#ff3873"/><path d="M384.058,315.456c0-.509,0-1.316,0-2.42.085-1.188.127-2.419.127-3.693.085-1.274.128-2.505.128-3.693.085-1.189.127-2.038.127-2.548.934-1.358,2.123-2.462,3.566-3.311c1.528-.849,3.057-1.528,4.585-2.038.255,4.585.976,9.467,2.165,14.647c1.189,5.179,2.462,10.4,3.821,15.665c1.358,5.179,2.547,10.316,3.566,15.41c1.103,5.094,1.655,9.849,1.655,14.264c0,3.821-1.952,5.731-5.858,5.731-2.377,0-4.373-.976-5.986-2.929s-2.929-4.415-3.948-7.387c-.934-3.057-1.698-6.41-2.292-10.061-.595-3.736-1.019-7.387-1.274-10.953-.17-3.566-.297-6.835-.382-9.807c0-2.971,0-5.264,0-6.877Zm1.783-47.759c1.613.679,2.972,1.783,4.075,3.311c1.104,1.529,1.571,2.929,1.401,4.203-.085,1.189-1.019,2.038-2.802,2.547-1.783.425-4.754-.085-8.915-1.528c0-2.293.425-4.288,1.274-5.986.934-1.698,2.59-2.547,4.967-2.547Z" fill="#ff3873"/></g><mask id="eb2Gfj8DTkE299" mask-type="luminance" x="-150%" y="-150%" height="400%" width="400%"><path d="M520,-87h-540v540h540v-540Z" fill="#fff"/></mask></g><g mask="url(#eb2Gfj8DTkE309)"><g><path d="M108.908,289.724c0-2.462-.17-4.839-.51-7.132-.339-2.377-.424-4.457-.254-6.24.17-1.868.806-3.354,1.91-4.458c1.189-1.103,3.311-1.655,6.368-1.655.934,1.953,1.825,4.924,2.675,8.915.934,3.99,1.825,8.575,2.674,13.754.849,5.18,1.656,10.826,2.42,16.939.764,6.028,1.443,12.099,2.038,18.212.679,6.113,1.231,12.142,1.655,18.085.51,5.858.892,11.207,1.146,16.047-2.801,1.868-5.051,1.995-6.75.382-1.698-1.613-3.099-4.33-4.202-8.151-1.104-3.905-1.953-8.618-2.547-14.136-.595-5.604-1.189-11.378-1.783-17.321-.51-6.028-1.147-11.929-1.911-17.703-.764-5.858-1.74-11.038-2.929-15.538Z" fill="#ff3873"/><path d="M141,314.05c0-.51,0-1.316,0-2.42.085-1.189.128-2.42.128-3.693.085-1.274.127-2.505.127-3.694.085-1.188.127-2.037.127-2.547.934-1.358,2.123-2.462,3.566-3.311c1.529-.849,3.057-1.528,4.585-2.038.255,4.585.977,9.467,2.165,14.646c1.189,5.179,2.463,10.401,3.821,15.665c1.359,5.179,2.547,10.316,3.566,15.411c1.104,5.094,1.656,9.849,1.656,14.264c0,3.82-1.953,5.731-5.859,5.731-2.377,0-4.372-.977-5.986-2.929-1.613-1.953-2.929-4.416-3.948-7.387-.934-3.057-1.698-6.411-2.292-10.062-.594-3.735-1.019-7.386-1.274-10.952-.169-3.566-.297-6.835-.382-9.807c0-2.972,0-5.264,0-6.877Zm1.783-47.759c1.613.679,2.972,1.783,4.076,3.311s1.57,2.929,1.401,4.203c-.085,1.188-1.019,2.037-2.802,2.547-1.783.424-4.755-.085-8.915-1.528c0-2.293.424-4.288,1.273-5.986.934-1.698,2.59-2.547,4.967-2.547Z" fill="#ff3873"/><path d="M190.157,356.078c1.358-.934,2.972-2.123,4.84-3.566c1.952-1.528,3.905-3.142,5.858-4.84s3.778-3.481,5.476-5.349s3.014-3.651,3.948-5.349c1.019-1.783,1.529-3.438,1.529-4.967c0-1.528-.764-2.802-2.293-3.82-2.717,0-5.688.127-8.915.382-3.226.169-6.453.254-9.679.254-3.226-.085-6.368-.382-9.424-.891-2.972-.51-5.647-1.444-8.024-2.802-2.377-1.359-4.288-3.269-5.731-5.731-1.359-2.547-2.038-5.774-2.038-9.679c0-4.585.849-8.703,2.547-12.354c1.783-3.736,4.118-7.005,7.005-9.807c2.887-2.886,6.113-5.391,9.679-7.514c3.651-2.207,7.302-4.075,10.953-5.603c2.208.594,4.245,1.655,6.113,3.183c1.868,1.529,3.481,3.227,4.84,5.095-.595,1.868-1.783,3.311-3.566,4.33-1.698,1.019-3.694,1.91-5.986,2.674-2.208.765-4.542,1.571-7.005,2.42-2.462.849-4.712,1.996-6.75,3.439-1.953,1.358-3.608,3.184-4.967,5.476-1.358,2.208-2.037,5.137-2.037,8.788c0,2.717.679,4.712,2.037,5.986c1.359,1.273,3.142,2.165,5.349,2.674c2.208.425,4.713.595,7.514.51c2.802-.17,5.647-.382,8.533-.637c2.972-.255,5.859-.382,8.661-.382c2.802-.085,5.306.255,7.514,1.019c2.207.679,3.948,1.825,5.222,3.438c1.358,1.614,2.037,3.991,2.037,7.132c0,1.359-.467,3.1-1.401,5.222-.849,2.123-2.037,4.415-3.566,6.877-1.443,2.378-3.184,4.755-5.221,7.133-1.953,2.377-4.033,4.542-6.241,6.495-2.122,1.868-4.288,3.438-6.495,4.712-2.123,1.189-4.118,1.783-5.986,1.783-1.783,0-2.972-.637-3.566-1.91-.509-1.274-.764-2.548-.764-3.821Z" fill="#ff3873"/><path d="M272.296,299.022c.17-.17.297-.382.382-.637.17-.34.255-.595.255-.764c0-1.953-1.189-3.227-3.566-3.821-2.293-.679-5.18-.976-8.661-.892-3.481,0-7.259.17-11.335.51-3.99.339-7.726.509-11.207.509-3.481-.085-6.41-.509-8.788-1.273-2.292-.849-3.438-2.378-3.438-4.585c0-1.444.084-2.505.254-3.184.255-.764.595-1.274,1.019-1.528.425-.34.934-.51,1.528-.51.68-.085,1.401-.127,2.166-.127h3.311c1.019.085,2.674.212,4.967.382c2.292.085,4.882.212,7.769.382c2.886.085,5.901.255,9.042.509c3.226.17,6.241.34,9.042.51c2.887.17,5.434.339,7.642.509c2.292.17,4.033.297,5.222.382c1.528.934,2.801,1.783,3.82,2.547c1.104.765,1.953,1.529,2.547,2.293.68.764,1.147,1.613,1.401,2.547.34.849.51,1.953.51,3.311c0,2.887-.595,5.731-1.783,8.533-1.189,2.717-2.717,5.477-4.585,8.279-1.783,2.717-3.863,5.476-6.241,8.278-2.292,2.717-4.542,5.434-6.75,8.151-2.207,2.717-4.287,5.434-6.24,8.151s-3.481,5.349-4.585,7.896h32.731c2.462,0,4.033.467,4.712,1.401s1.019,2.25,1.019,3.948c0,1.189-.127,2.292-.382,3.311s-1.146,1.783-2.674,2.293c-4.076.339-8.194.849-12.354,1.528-4.161.679-8.321,1.358-12.481,2.038-4.161.679-8.363,1.273-12.609,1.783-4.16.509-8.32.764-12.481.764c0-6.113.934-11.972,2.802-17.576c1.953-5.688,4.415-11.165,7.387-16.429c3.056-5.264,6.368-10.358,9.934-15.283c3.651-4.924,7.217-9.636,10.698-14.136Z" fill="#ff3873"/><path d="M326.925,359.262c-1.359,1.189-2.802.637-4.33-1.656-1.444-2.292-2.93-5.731-4.458-10.316-1.528-4.67-3.057-10.231-4.585-16.684-1.443-6.452-2.844-13.287-4.203-20.504-1.358-7.217-2.674-14.519-3.948-21.906-1.188-7.471-2.25-14.476-3.184-21.014c0-1.189-.042-2.377-.127-3.566c0-1.273.127-2.42.382-3.439.34-1.103.892-2.08,1.656-2.929.849-.849,2.122-1.486,3.82-1.91.17-.085.51,0,1.019.255.595.169,1.189.424,1.783.764.595.254,1.104.552,1.529.891.509.34.849.637,1.018.892-1.103,15.877.722,31.33,5.477,46.358.255-.255.934-1.104,2.038-2.547c1.103-1.528,2.504-3.269,4.202-5.222c1.699-2.038,3.609-4.203,5.732-6.495c2.207-2.293,4.499-4.415,6.877-6.368c2.377-1.953,4.755-3.566,7.132-4.84c2.377-1.358,4.67-2.037,6.877-2.037c1.274,0,2.505.297,3.694.891c1.273.595,1.91,1.741,1.91,3.439c0,.17-.042.424-.127.764-.085.255-.128.467-.128.637-1.358,1.188-3.438,3.014-6.24,5.476-2.717,2.462-5.604,5.222-8.661,8.278-3.056,3.057-5.985,6.241-8.787,9.552-2.802,3.312-4.925,6.453-6.368,9.425-.255.509-.34.976-.255,1.401.085.339.17.764.255,1.273.934.34,2.42.849,4.457,1.529c2.038.679,4.288,1.485,6.75,2.419c2.463.849,5.095,1.783,7.896,2.802c2.802.934,5.434,1.868,7.897,2.802c2.462.934,4.669,1.783,6.622,2.547c2.038.68,3.566,1.189,4.585,1.529c1.189.509,2.165.849,2.929,1.018.765.17,1.359.425,1.783.765.425.254.722.636.892,1.146.17.509.255,1.273.255,2.292c0,2.462-.595,4.076-1.783,4.84-1.189.764-2.887,1.146-5.095,1.146-6.537-.424-12.948-1.783-19.231-4.075-6.283-2.378-12.651-5.222-19.103-8.533-.255,1.613-.17,3.481.254,5.603.51,2.123,1.104,4.246,1.783,6.368.68,2.123,1.316,4.203,1.911,6.241.679,2.038,1.061,3.863,1.146,5.476.17,1.613,0,2.887-.51,3.821-.509.934-1.655,1.401-3.438,1.401Z" fill="#ff3873"/><path d="M381.299,314.05c0-.51,0-1.316,0-2.42.085-1.189.127-2.42.127-3.693.085-1.274.128-2.505.128-3.694.084-1.188.127-2.037.127-2.547.934-1.358,2.123-2.462,3.566-3.311c1.528-.849,3.057-1.528,4.585-2.038.255,4.585.976,9.467,2.165,14.646s2.462,10.401,3.821,15.665c1.358,5.179,2.547,10.316,3.566,15.411c1.103,5.094,1.655,9.849,1.655,14.264c0,3.82-1.953,5.731-5.858,5.731-2.378,0-4.373-.977-5.986-2.929-1.613-1.953-2.929-4.416-3.948-7.387-.934-3.057-1.698-6.411-2.293-10.062-.594-3.735-1.018-7.386-1.273-10.952-.17-3.566-.297-6.835-.382-9.807c0-2.972,0-5.264,0-6.877Zm1.783-47.759c1.613.679,2.972,1.783,4.075,3.311c1.104,1.528,1.571,2.929,1.401,4.203-.085,1.188-1.019,2.037-2.802,2.547-1.783.424-4.754-.085-8.915-1.528c0-2.293.425-4.288,1.274-5.986.934-1.698,2.59-2.547,4.967-2.547Z" fill="#ff3873"/></g><mask id="eb2Gfj8DTkE309" mask-type="luminance" x="-150%" y="-150%" height="400%" width="400%"><path d="M520,-87h-540v540h540v-540Z" fill="#fff"/></mask></g><g mask="url(#eb2Gfj8DTkE314)"><g><path d="M106.149,288.32c0-2.463-.17-4.84-.51-7.132-.339-2.378-.424-4.458-.254-6.241.17-1.868.806-3.354,1.91-4.458c1.189-1.103,3.311-1.655,6.368-1.655.934,1.953,1.825,4.924,2.675,8.915.933,3.99,1.825,8.575,2.674,13.755.849,5.179,1.656,10.825,2.42,16.938.764,6.028,1.443,12.099,2.038,18.212.679,6.113,1.231,12.142,1.655,18.085.51,5.859.892,11.208,1.146,16.047-2.801,1.868-5.051,1.995-6.75.382-1.698-1.613-3.099-4.33-4.202-8.151-1.104-3.905-1.953-8.617-2.548-14.136-.594-5.604-1.188-11.378-1.783-17.321-.509-6.028-1.146-11.929-1.91-17.703-.764-5.858-1.74-11.037-2.929-15.537Z" fill="#3bc7cd"/></g><mask id="eb2Gfj8DTkE314" mask-type="luminance" x="-150%" y="-150%" height="400%" width="400%"><path d="M520,-87h-540v540h540v-540Z" fill="#fff"/></mask></g><g mask="url(#eb2Gfj8DTkE319)"><g><path d="M138.24,312.645c0-.509,0-1.316,0-2.42.085-1.189.127-2.42.127-3.693.085-1.274.128-2.505.128-3.694.084-1.188.127-2.037.127-2.547.934-1.358,2.123-2.462,3.566-3.311c1.528-.849,3.057-1.528,4.585-2.038.255,4.585.976,9.467,2.165,14.646c1.189,5.18,2.462,10.401,3.821,15.665c1.358,5.18,2.547,10.316,3.566,15.411c1.103,5.094,1.655,9.849,1.655,14.264c0,3.82-1.953,5.731-5.858,5.731-2.378,0-4.373-.977-5.986-2.929-1.613-1.953-2.929-4.415-3.948-7.387-.934-3.057-1.698-6.41-2.293-10.061-.594-3.736-1.018-7.387-1.273-10.953-.17-3.566-.297-6.835-.382-9.807c0-2.971,0-5.264,0-6.877Zm1.783-47.759c1.613.679,2.972,1.783,4.075,3.311c1.104,1.528,1.571,2.929,1.401,4.203-.085,1.189-1.019,2.038-2.802,2.547-1.783.425-4.754-.085-8.915-1.528c0-2.293.425-4.288,1.274-5.986.934-1.698,2.589-2.547,4.967-2.547Z" fill="#3bc7cd"/></g><mask id="eb2Gfj8DTkE319" mask-type="luminance" x="-150%" y="-150%" height="400%" width="400%"><path d="M520,-87h-540v540h540v-540Z" fill="#fff"/></mask></g><g mask="url(#eb2Gfj8DTkE324)"><g><path d="M187.396,354.673c1.359-.934,2.972-2.123,4.84-3.566c1.953-1.528,3.906-3.141,5.858-4.84c1.953-1.698,3.779-3.481,5.477-5.349s3.014-3.651,3.948-5.349c1.019-1.783,1.528-3.438,1.528-4.967c0-1.528-.764-2.801-2.292-3.82-2.717,0-5.689.127-8.915.382-3.227.17-6.453.254-9.679.254-3.227-.084-6.368-.382-9.425-.891-2.972-.509-5.646-1.443-8.023-2.802-2.378-1.358-4.288-3.269-5.732-5.731-1.358-2.547-2.037-5.774-2.037-9.679c0-4.585.849-8.703,2.547-12.354c1.783-3.736,4.118-7.005,7.005-9.806c2.886-2.887,6.113-5.392,9.679-7.515c3.651-2.207,7.302-4.075,10.953-5.603c2.207.594,4.245,1.655,6.113,3.184c1.868,1.528,3.481,3.226,4.839,5.094-.594,1.868-1.783,3.311-3.566,4.33-1.698,1.019-3.693,1.91-5.986,2.675-2.207.764-4.542,1.57-7.004,2.419s-4.712,1.996-6.75,3.439c-1.953,1.359-3.609,3.184-4.967,5.476-1.359,2.208-2.038,5.137-2.038,8.788c0,2.717.679,4.712,2.038,5.986c1.358,1.274,3.141,2.165,5.349,2.674c2.207.425,4.712.595,7.514.51c2.802-.17,5.646-.382,8.533-.637c2.972-.255,5.858-.382,8.66-.382c2.802-.085,5.307.255,7.514,1.019c2.208.679,3.949,1.825,5.222,3.439c1.359,1.613,2.038,3.99,2.038,7.132c0,1.358-.467,3.099-1.401,5.221-.849,2.123-2.038,4.415-3.566,6.878-1.444,2.377-3.184,4.754-5.222,7.132-1.953,2.377-4.033,4.542-6.24,6.495-2.123,1.868-4.288,3.439-6.496,4.712-2.122,1.189-4.117,1.783-5.985,1.783-1.783,0-2.972-.637-3.566-1.91-.51-1.274-.765-2.547-.765-3.821Z" fill="#3bc7cd"/></g><mask id="eb2Gfj8DTkE324" mask-type="luminance" x="-150%" y="-150%" height="400%" width="400%"><path d="M520,-87h-540v540h540v-540Z" fill="#fff"/></mask></g><g mask="url(#eb2Gfj8DTkE329)"><g><path d="M269.537,297.617c.17-.17.297-.382.382-.637.17-.34.255-.594.255-.764c0-1.953-1.189-3.227-3.566-3.821-2.293-.679-5.18-.976-8.661-.891-3.481,0-7.259.169-11.335.509-3.99.34-7.726.509-11.207.509-3.481-.085-6.41-.509-8.788-1.273-2.292-.849-3.438-2.378-3.438-4.585c0-1.443.084-2.505.254-3.184.255-.764.595-1.274,1.019-1.528.425-.34.934-.51,1.528-.51.68-.085,1.401-.127,2.166-.127h3.311c1.019.085,2.674.212,4.967.382c2.292.085,4.882.212,7.769.382c2.886.085,5.901.255,9.042.509c3.226.17,6.241.34,9.042.51c2.887.17,5.434.34,7.642.509c2.292.17,4.033.298,5.222.382c1.528.934,2.801,1.783,3.82,2.548c1.104.764,1.953,1.528,2.547,2.292.68.764,1.147,1.613,1.401,2.547.34.849.51,1.953.51,3.311c0,2.887-.595,5.732-1.783,8.533-1.189,2.717-2.717,5.477-4.585,8.279-1.783,2.717-3.863,5.476-6.241,8.278-2.292,2.717-4.542,5.434-6.75,8.151-2.207,2.717-4.287,5.434-6.24,8.151s-3.481,5.349-4.585,7.896h32.731c2.462,0,4.033.467,4.712,1.401s1.019,2.25,1.019,3.948c0,1.189-.127,2.292-.382,3.311s-1.146,1.783-2.675,2.293c-4.075.339-8.193.849-12.353,1.528-4.161.679-8.321,1.359-12.481,2.038-4.161.679-8.363,1.273-12.609,1.783-4.16.509-8.32.764-12.481.764c0-6.113.934-11.972,2.802-17.575c1.953-5.689,4.415-11.165,7.387-16.43c3.056-5.264,6.368-10.358,9.934-15.283c3.651-4.924,7.217-9.636,10.698-14.136Z" fill="#3bc7cd"/></g><mask id="eb2Gfj8DTkE329" mask-type="luminance" x="-150%" y="-150%" height="400%" width="400%"><path d="M520,-87h-540v540h540v-540Z" fill="#fff"/></mask></g><g mask="url(#eb2Gfj8DTkE334)"><g><path d="M324.164,357.857c-1.358,1.189-2.802.637-4.33-1.656-1.443-2.292-2.929-5.731-4.457-10.316-1.529-4.669-3.057-10.231-4.585-16.684-1.444-6.452-2.845-13.287-4.203-20.504-1.359-7.217-2.675-14.519-3.948-21.906-1.189-7.471-2.25-14.476-3.184-21.014c0-1.188-.043-2.377-.127-3.566c0-1.273.127-2.42.382-3.438.339-1.104.891-2.081,1.655-2.93.849-.849,2.123-1.486,3.821-1.91.17-.085.509,0,1.019.255.594.169,1.189.424,1.783.764.594.255,1.104.552,1.528.891.51.34.849.637,1.019.892-1.104,15.877.722,31.33,5.476,46.358.255-.255.934-1.104,2.038-2.547c1.104-1.528,2.505-3.269,4.203-5.222c1.698-2.037,3.608-4.203,5.731-6.495c2.208-2.292,4.5-4.415,6.877-6.368c2.378-1.953,4.755-3.566,7.132-4.839c2.378-1.359,4.67-2.038,6.878-2.038c1.273,0,2.504.297,3.693.891c1.274.595,1.91,1.741,1.91,3.439c0,.17-.042.424-.127.764-.085.255-.127.467-.127.637-1.359,1.189-3.439,3.014-6.241,5.476-2.717,2.463-5.604,5.222-8.66,8.279-3.057,3.056-5.986,6.24-8.788,9.551-2.802,3.312-4.924,6.453-6.368,9.425-.254.509-.339.976-.254,1.401.085.339.169.764.254,1.273.934.34,2.42.849,4.458,1.529c2.038.679,4.288,1.486,6.75,2.419c2.462.85,5.094,1.783,7.896,2.802c2.802.934,5.434,1.868,7.896,2.802s4.67,1.783,6.623,2.547c2.038.68,3.566,1.189,4.585,1.529c1.188.509,2.165.849,2.929,1.019.764.169,1.358.424,1.783.764.424.254.722.636.891,1.146.17.509.255,1.273.255,2.292c0,2.463-.594,4.076-1.783,4.84s-2.887,1.146-5.094,1.146c-6.538-.424-12.948-1.783-19.231-4.075-6.283-2.378-12.651-5.222-19.104-8.533-.255,1.613-.17,3.481.255,5.603.509,2.123,1.104,4.246,1.783,6.368.679,2.123,1.316,4.203,1.91,6.241.679,2.038,1.062,3.863,1.146,5.476.17,1.614,0,2.887-.509,3.821s-1.656,1.401-3.439,1.401Z" fill="#3bc7cd"/></g><mask id="eb2Gfj8DTkE334" mask-type="luminance" x="-150%" y="-150%" height="400%" width="400%"><path d="M520,-87h-540v540h540v-540Z" fill="#fff"/></mask></g><g mask="url(#eb2Gfj8DTkE339)"><g><path d="M378.538,312.645c0-.509,0-1.316,0-2.42.085-1.189.128-2.42.128-3.693.085-1.274.127-2.505.127-3.694.085-1.188.127-2.037.127-2.547.934-1.358,2.123-2.462,3.566-3.311c1.529-.849,3.057-1.528,4.585-2.038.255,4.585.977,9.467,2.165,14.646c1.189,5.18,2.463,10.401,3.821,15.665c1.359,5.18,2.547,10.316,3.566,15.411c1.104,5.094,1.656,9.849,1.656,14.264c0,3.82-1.953,5.731-5.859,5.731-2.377,0-4.372-.977-5.985-2.929-1.614-1.953-2.93-4.415-3.949-7.387-.933-3.057-1.698-6.41-2.292-10.061-.594-3.736-1.019-7.387-1.274-10.953-.169-3.566-.297-6.835-.382-9.807c0-2.971,0-5.264,0-6.877Zm1.783-47.759c1.614.679,2.972,1.783,4.076,3.311s1.571,2.929,1.401,4.203c-.085,1.189-1.019,2.038-2.802,2.547-1.783.425-4.755-.085-8.915-1.528c0-2.293.424-4.288,1.273-5.986.934-1.698,2.59-2.547,4.967-2.547Z" fill="#3bc7cd"/></g><mask id="eb2Gfj8DTkE339" mask-type="luminance" x="-150%" y="-150%" height="400%" width="400%"><path d="M520,-87h-540v540h540v-540Z" fill="#fff"/></mask></g></g></g><clipPath id="eb2Gfj8DTkE341"><rect width="500" height="500" rx="0" ry="0" fill="#fff"/></clipPath></g></g></svg>
